<?xml version="1.0" standalone="no"?>
<!DOCTYPE svg PUBLIC "-//W3C//DTD SVG 1.1//EN" "http://www.w3.org/Graphics/SVG/1.1/DTD/svg11.dtd" >
<svg>
<metadata>
Created by FontForge 20110222 at Mon Mar  7 04:34:17 2011
 By www-data
Copyright 1997 by MGI Software
</metadata>
<defs>
<font id="EurostarBlack" horiz-adv-x="1311" >
  <font-face 
    font-family="Eurostar"
    font-weight="900"
    font-stretch="normal"
    units-per-em="2048"
    panose-1="2 11 8 4 2 2 2 4 2 4"
    ascent="1581"
    descent="-467"
    x-height="956"
    cap-height="1365"
    bbox="-80 -436 2293 1805"
    underline-thickness="200"
    underline-position="-109"
    unicode-range="U+0020-2264"
  />
    <missing-glyph />
    <glyph glyph-name="space" unicode=" " horiz-adv-x="512" 
 />
    <glyph glyph-name="exclam" unicode="!" horiz-adv-x="636" 
d="M444 313v-313h-295v313h295zM471 1365l-19 -828h-311l-14 828h344z" />
    <glyph glyph-name="quotedbl" unicode="&#x22;" horiz-adv-x="880" 
d="M343 819h-212l-42 546h296zM749 819h-211l-42 546h296z" />
    <glyph glyph-name="numbersign" unicode="#" 
d="M1201 560l-32 -204h-211l-56 -356h-233l57 356h-246l-57 -356h-230l57 356h-211l32 204h211l39 247h-210l32 204h210l57 354h229l-56 -354h246l57 354h232l-56 -354h209l-32 -204h-209l-40 -247h211zM797 807h-246l-39 -247h246z" />
    <glyph glyph-name="dollar" unicode="$" 
d="M753 0v-165h-205v168q-208 0 -323 55q-185 89 -185 340q0 18 2 65h323q1 -18 1 -25q1 -95 38 -125t208 -30q231 0 267 17q58 27 58 129q0 104 -79 119q-19 4 -119 11l-232 18q-274 18 -369 106q-82 76 -82 280q0 180 43 259q76 140 312 160q42 4 137 7v150h205v-150
q214 -14 297 -48q170 -70 170 -328v-42h-310q-1 11 -1 20q-3 98 -105 107q-45 4 -187 4q-152 0 -188 -22q-43 -26 -43 -107q0 -72 43 -96q26 -15 111 -21l199 -14q78 -5 173 -16q141 -16 211 -57q146 -86 146 -325q0 -308 -179 -394q-78 -38 -337 -50z" />
    <glyph glyph-name="percent" unicode="%" horiz-adv-x="1652" 
d="M368 1367q82 0 115 -7q60 -12 97 -54q39 -45 49 -108q6 -33 6 -121q0 -155 -1 -165q-7 -98 -46 -156q-51 -76 -244 -76q-126 0 -174 24q-85 42 -103 151q-5 30 -5 214q0 93 4 123q10 68 48 110q44 49 117 60q30 5 137 5zM351 1215q-77 1 -93 -23t-16 -117v-39l1 -72
q0 -11 -1 -33q-3 -64 22 -83q20 -15 89 -15q76 0 90 31q11 24 13 174q2 116 -9 146q-15 30 -96 31zM1311 1365l-806 -1365h-164l806 1365h164zM1324 685q82 0 115 -7q60 -12 97 -54q39 -45 49 -108q6 -33 6 -121q0 -155 -1 -165q-7 -98 -46 -156q-51 -76 -245 -76
q-126 0 -174 24q-84 42 -103 151q-5 29 -5 214q0 174 52 233q43 49 118 60q29 5 137 5zM1306 533q-77 1 -93 -22.5t-16 -117.5q0 13 1 -111v-33q-1 -65 22 -83q20 -15 89 -15q76 0 90 31q10 23 13 174q2 116 -9 146q-15 30 -97 31z" />
    <glyph glyph-name="ampersand" unicode="&#x26;" horiz-adv-x="1409" 
d="M979 715h293q-1 -162 -3 -199q-7 -120 -37 -195l152 -135l-162 -193l-125 110q-67 -77 -184 -100q-64 -13 -215 -13q-274 0 -379 36q-221 76 -221 389q0 205 85 288q53 51 157 58q-61 58 -75 85q-25 49 -25 172q0 201 119 274q97 59 323 59q228 0 330 -47
q133 -61 151 -236q4 -39 6 -153h-312q1 29 1 36q0 85 -28.5 110t-114.5 25q-83 0 -109 -19q-34 -23 -34 -100q0 -48 16 -73q12 -20 76 -77l315 -281v179zM518 605h-10q-29 0 -53 -35q-19 -28 -19 -126q0 -122 59 -157q41 -24 178 -24t206 34z" />
    <glyph glyph-name="quotesingle" unicode="'" horiz-adv-x="473" 
d="M343 819h-212l-42 546h296z" />
    <glyph glyph-name="parenleft" unicode="(" horiz-adv-x="701" 
d="M601 -112v-298q-147 6 -176 10q-102 13 -166 53q-122 77 -148 288q-11 91 -11 537q0 497 -3 337q4 210 43 333q57 180 275 205q61 7 186 12v-298q-95 -1 -128 -49q-27 -39 -26 -140q1 -58 -1 -196q-1 -79 -1 -190q0 -94 1 -219l1 -198q-1 -100 27 -139q32 -46 127 -48z
" />
    <glyph glyph-name="parenright" unicode=")" horiz-adv-x="701" 
d="M100 1067v298q147 -6 176 -10q102 -13 166 -53q122 -77 148 -288q11 -91 11 -537q0 -338 0 -336q-6 -226 -40 -334q-57 -180 -275 -205q-61 -7 -186 -12v298q95 2 128 49q27 39 26 140q0 44 1 196l1 190q0 93 -1 219l-1 198q1 100 -26 139q-33 47 -128 48z" />
    <glyph glyph-name="asterisk" unicode="*" 
d="M1028 1027l-228 -71l138 -195l-134 -102l-141 203l-153 -202l-137 100l140 197l-230 85l58 160l229 -82v245h170v-245l235 82z" />
    <glyph glyph-name="plus" unicode="+" 
d="M498 144v395h-381v287h381v395h314v-395h381v-287h-381v-395h-314z" />
    <glyph glyph-name="comma" unicode="," horiz-adv-x="504" 
d="M388 307v-278q0 -138 -29 -192q-52 -97 -240 -97q-14 0 -44 1v138q105 0 122 42q7 18 8 79h-112v307h295z" />
    <glyph glyph-name="hyphen" unicode="-" horiz-adv-x="489" 
d="M0 715h489v-309h-489v309z" />
    <glyph glyph-name="hyphen" unicode="&#x2010;" horiz-adv-x="489" 
d="M0 715h489v-309h-489v309z" />
    <glyph glyph-name="period" unicode="." horiz-adv-x="459" 
d="M377 313v-313h-295v313h295z" />
    <glyph glyph-name="slash" unicode="/" horiz-adv-x="1160" 
d="M1050 1365l-900 -1775h-230l900 1775h230z" />
    <glyph glyph-name="zero" unicode="0" 
d="M655 1375q271 0 380 -62q159 -91 179 -303q8 -86 8 -327t-1 -261q-10 -172 -60 -251q-74 -117 -214 -156q-90 -25 -294 -25q-272 0 -378 62q-160 94 -180 303q-7 74 -7 331q0 232 2 259q10 170 59 249q72 116 214 156q88 25 292 25zM671 1075q-29 -1 -44 -1
q-160 3 -180 -101q-11 -56 -11 -256v-44q1 -68 1 -97q0 -155 -1 -118q2 -76 25 -113q25 -41 93 -51q24 -4 111 -4q119 0 157 34q47 42 48 159q2 69 4 219q1 216 -7 271q-17 110 -196 102z" />
    <glyph glyph-name="one" unicode="1" 
d="M987 1365v-1365h-351v1042l-359 -321l-205 232l497 412h418z" />
    <glyph glyph-name="two" unicode="2" 
d="M1195 285v-285h-1075v310q0 257 151 337q68 36 427 120q93 22 119.5 53t26.5 124q0 125 -83 139q-36 6 -133 6q-70 0 -98 -12q-42 -17 -57 -74q-8 -31 -9 -133h-339v72q-2 165 39 244q62 120 212 162q97 27 277 27q182 0 277 -25q156 -40 215 -157q47 -94 47 -261
q0 -192 -68 -282q-60 -80 -230 -127q-147 -41 -296 -75q-74 -17 -99 -38q-35 -29 -35 -96v-29h731z" />
    <glyph glyph-name="three" unicode="3" 
d="M555 566v262q29 -1 36 -1q168 0 199 15q44 21 44 101q0 65 -7 87q-14 39 -63 50q-39 9 -130 9q-121 0 -152.5 -31t-31.5 -151h-341q1 35 1 49q1 160 31 228q54 121 212 164q99 27 280 27q394 0 498 -159q51 -78 51 -207q0 -136 -46 -207q-52 -82 -179 -104v-8
q240 -10 240 -302q0 -207 -113 -300q-79 -65 -205 -86q-74 -12 -226 -12q-224 0 -326 30q-241 71 -241 379q0 26 3 79h343q-2 -32 -2 -43q0 -106 57 -137q38 -21 158 -21q124 0 159 24q45 32 45 146q0 89 -64 109q-32 10 -198 10h-32z" />
    <glyph glyph-name="four" unicode="4" 
d="M1118 1365v-831h115v-261h-115v-273h-351v273h-714v387l523 705h542zM767 534v550h-13l-415 -550h428z" />
    <glyph glyph-name="five" unicode="5" 
d="M1136 1365v-264h-672v-261h5q52 69 128 88q45 12 159 12q166 0 250 -38q118 -54 162 -184q30 -91 30 -253q0 -157 -30 -239q-56 -152 -226 -204q-105 -32 -319 -32q-194 0 -285 34q-128 48 -177 144q-39 76 -45 229h348q12 -87 58 -108q26 -12 132 -12q145 0 177 49
q19 29 19 135q0 134 -26 168q-32 41 -158 41q-101 0 -118 -3q-72 -12 -84 -66h-317v764h989z" />
    <glyph glyph-name="six" unicode="6" 
d="M1212 949h-351q-2 96 -39 120q-28 19 -133 19q-138 0 -173 -20q-58 -33 -55 -146l1 -39v-197h6q33 95 94 123q42 19 159 19q170 0 251 -20q141 -36 192 -144q38 -83 38 -233q0 -210 -82 -311q-70 -87 -207 -114q-78 -16 -243 -16q-259 0 -364 50q-137 65 -177 266
q-16 80 -16 282q0 419 30 532q49 183 255 236q74 19 249 19q272 0 367 -37q121 -47 165 -156q33 -80 33 -233zM680 553q-128 0 -154 -9q-64 -21 -64 -117q0 -99 30 -123q39 -31 159 -31q118 0 150 16q53 26 53 127q0 97 -39 121q-27 16 -135 16z" />
    <glyph glyph-name="seven" unicode="7" 
d="M1125 1365v-307l-453 -1058h-382l461 1058h-657v307h1031z" />
    <glyph glyph-name="eight" unicode="8" 
d="M969 701v-6q119 -18 172 -79q69 -79 69 -244q0 -128 -37 -200q-64 -125 -226 -161q-94 -21 -292 -21q-155 0 -231 11q-135 20 -213 81q-110 87 -110 290q0 147 48 219q55 83 193 104v6q-105 30 -140 60q-82 69 -82 237q0 195 102 286q74 66 206 83q59 8 227 8
q240 0 321 -27q215 -72 215 -350q0 -168 -82 -237q-36 -30 -140 -60zM656 1097q-129 0 -158.5 -25.5t-29.5 -100.5q0 -129 78 -139q24 -3 120 -3q116 0 141 21q36 30 36 120t-50 114q-29 13 -137 13zM656 564q-123 0 -152 -13q-55 -24 -55 -125q0 -106 53 -132
q30 -15 157 -15q119 0 150 15q53 26 53 127q0 104 -52 129q-29 14 -154 14z" />
    <glyph glyph-name="nine" unicode="9" 
d="M91 416h347q5 -119 69 -132q30 -7 136 -7q83 0 112 8q61 15 75 71q7 28 7 131v196h-5q-30 -93 -92 -124q-48 -23 -158 -23q-248 0 -349 56q-131 73 -131 335q0 257 107 349q75 65 197 86q74 13 218 13q255 0 358 -44q160 -68 194 -304q11 -77 11 -231q0 -401 -18 -505
q-20 -118 -106 -198q-73 -69 -212 -91q-77 -12 -235 -12q-221 0 -318 35q-170 62 -197 246q-7 49 -10 145zM661 1090q-124 0 -154 -14q-57 -25 -57 -127q0 -105 60 -129q27 -11 161 -11q96 0 128 22q41 27 41 116q0 96 -42 123q-31 20 -137 20z" />
    <glyph glyph-name="colon" unicode=":" horiz-adv-x="459" 
d="M377 313v-313h-295v313h295zM377 956v-313h-295v313h295z" />
    <glyph glyph-name="semicolon" unicode=";" horiz-adv-x="486" 
d="M383 307v-278q0 -138 -29 -192q-52 -97 -240 -97q-14 0 -44 1v138q105 0 122 42q7 18 8 79h-112v307h295zM384 956v-313h-295v313h295z" />
    <glyph glyph-name="less" unicode="&#x3c;" horiz-adv-x="1024" 
d="M955 1309v-337l-529 -281l529 -283v-334l-887 476v283z" />
    <glyph glyph-name="equal" unicode="=" 
d="M117 1038h1076v-287h-1076v287zM117 614h1076v-287h-1076v287z" />
    <glyph glyph-name="greater" unicode="&#x3e;" horiz-adv-x="1024" 
d="M69 74v337l529 281l-528 283v334l886 -476v-284z" />
    <glyph glyph-name="question" unicode="?" horiz-adv-x="1102" 
d="M650 313v-313h-295v313h295zM662 483h-315v38q0 140 32 196q34 62 155 121q117 57 139 76q37 31 37 90q0 74 -37 101q-31 22 -110 22q-80 0 -114 -18q-49 -26 -49 -97q0 -12 2 -44h-312q2 35 2 56q2 92 11 134q15 70 63 114q112 103 408 103q234 0 330 -67
q115 -81 115 -302q0 -183 -94 -265q-42 -37 -165 -91q-65 -29 -83 -62q-15 -28 -15 -105z" />
    <glyph glyph-name="at" unicode="@" horiz-adv-x="1579" 
d="M888 1046h235v-398q0 -114 75 -114q76 0 95 106q7 36 7 164q0 259 -41 320q-36 53 -178 65q-25 2 -197 2q-231 0 -280 -4q-195 -17 -255 -89q-68 -82 -68 -341q0 -347 40 -449q35 -90 178 -116q64 -12 226 -12q173 0 235 6q185 18 203 82l169 -62q-56 -141 -265 -178
q-79 -14 -343 -14q-275 0 -383 45q-167 69 -205 243q-27 124 -27 410q0 273 39 372q77 195 307 244q109 23 399 23q301 0 398 -32q148 -49 193 -217q25 -93 25 -290q0 -232 -43 -319q-65 -132 -267 -132q-107 0 -157 16q-87 28 -91 110h-7q-31 -129 -197 -129
q-128 0 -183 46q-61 50 -74 180q-3 30 -3 203q0 107 19 146q59 121 231 121q141 0 183 -101h7v93zM774 887q-111 0 -111 -128q0 -140 14 -184q16 -49 103 -49q78 0 101 39q15 26 15 117q0 135 -22 165q-29 40 -100 40z" />
    <glyph glyph-name="A" unicode="A" horiz-adv-x="1352" 
d="M923 235h-491l-66 -235h-380l410 1365h554l415 -1365h-372zM850 500l-172 593l-167 -593h339z" />
    <glyph glyph-name="B" unicode="B" horiz-adv-x="1339" 
d="M111 0v1365h743q184 0 270 -48q138 -77 138 -314q0 -184 -85 -249q-63 -48 -142 -58v-7q150 -13 204 -94q46 -68 46 -228q0 -127 -27 -191q-46 -109 -166 -149q-82 -27 -231 -27h-750zM478 819h232q121 0 147 16q42 26 42 115q0 70 -28 94q-25 21 -97 21h-296v-246z
M478 300h243q102 0 138 16q61 26 61 111q0 108 -57 130q-24 9 -118 9h-267v-266z" />
    <glyph glyph-name="C" unicode="C" horiz-adv-x="1306" 
d="M903 516h362v-41q-1 -117 -6 -162q-11 -96 -49 -152q-88 -131 -255 -160q-63 -11 -269 -11q-155 0 -194 3q-113 8 -187 41q-215 98 -234 414q-8 135 -8 356q0 153 18 235q27 127 108 204q97 92 252 118q81 14 284 14q223 0 311 -29q198 -65 218 -318q3 -36 5 -151h-363
q-1 16 -1 27q-2 108 -64 138q-38 19 -165 19q-174 0 -207 -95q-20 -57 -20 -406q0 -153 43 -202q46 -54 195 -54q121 0 166 26q61 36 61 145q0 8 -1 41z" />
    <glyph glyph-name="D" unicode="D" horiz-adv-x="1419" 
d="M111 0v1365h715q213 0 329 -70q205 -123 201 -439l-2 -163q-3 -251 -15 -338q-48 -355 -533 -355h-695zM478 314h296q125 0 170 79q37 65 37 309q0 222 -36 280q-41 65 -170 65h-297v-733z" />
    <glyph glyph-name="E" unicode="E" horiz-adv-x="1188" 
d="M478 1065v-246h582v-253h-582v-266h634v-300h-1001v1365h989v-300h-622z" />
    <glyph glyph-name="F" unicode="F" horiz-adv-x="1121" 
d="M478 1065v-266h555v-300h-555v-499h-367v1365h968v-300h-601z" />
    <glyph glyph-name="G" unicode="G" horiz-adv-x="1380" 
d="M697 771h617q5 -214 5 -301q0 -178 -38 -266q-70 -162 -268 -197q-96 -17 -336 -17q-221 0 -311 26q-209 61 -275 278q-28 92 -28 263q0 242 9 384q15 239 176 343q97 63 238 81q76 10 255 10q251 0 345 -30q134 -43 186 -156q37 -82 42 -248h-370q-12 90 -75 115
q-37 15 -149 15q-113 0 -173 -20q-98 -33 -106 -180q-3 -58 -3 -175q0 -251 25 -315q34 -87 223 -87q139 0 190 25q77 39 77 160q0 11 -1 39h-255v253z" />
    <glyph glyph-name="H" unicode="H" horiz-adv-x="1430" 
d="M1319 1365v-1365h-367v537h-474v-537h-367v1365h367v-514h474v514h367z" />
    <glyph glyph-name="I" unicode="I" horiz-adv-x="588" 
d="M478 1365v-1365h-367v1365h367z" />
    <glyph glyph-name="J" unicode="J" horiz-adv-x="1091" 
d="M980 1365v-922q0 -132 -4 -165q-10 -93 -52 -153q-64 -90 -180 -118q-69 -17 -221 -17q-249 0 -332 43q-110 57 -142 195q-16 70 -16 253q0 42 2 91h341v-28q0 -155 9 -188q14 -52 113 -52q97 0 111 71q4 20 4 107v883h367z" />
    <glyph glyph-name="K" unicode="K" horiz-adv-x="1408" 
d="M478 1365v-517h110l352 517h440l-481 -670l521 -695h-449l-380 538h-113v-538h-367v1365h367z" />
    <glyph glyph-name="L" unicode="L" horiz-adv-x="1066" 
d="M478 1365v-1051h574v-314h-941v1365h367z" />
    <glyph glyph-name="M" unicode="M" horiz-adv-x="1911" 
d="M1801 1365v-1365h-360v409q0 160 18 478l9 159h-12l-96 -311l-244 -735h-316l-144 425q-95 282 -203 621h-12l9 -159q21 -371 21 -478v-409h-360v1365h571l128 -391q54 -165 139 -467h14l31 116q62 230 99 349l124 393h584z" />
    <glyph glyph-name="N" unicode="N" horiz-adv-x="1585" 
d="M1475 1365v-1365h-621l-385 1051h-16l6 -126q10 -210 10 -379v-546h-358v1365h616l217 -575q96 -255 168 -463h15l-6 123q-9 184 -9 369v546h363z" />
    <glyph glyph-name="O" unicode="O" horiz-adv-x="1397" 
d="M720 1375q252 0 360 -47q192 -84 236 -299q18 -88 18 -354q0 -223 -14 -305q-40 -234 -222 -319q-130 -61 -424 -61q-285 0 -406 74q-154 95 -190 283q-15 79 -15 263q0 344 36 473q50 179 263 254q106 38 358 38zM709 1061q-127 1 -174 -19q-77 -32 -93 -170
q-3 -23 -3 -210q0 -211 24 -274q23 -59 104 -76q38 -8 138 -8q96 0 134 11q67 20 93.5 87.5t26.5 294.5q0 223 -25 280.5t-96 74.5q-36 9 -129 9z" />
    <glyph glyph-name="P" unicode="P" horiz-adv-x="1303" 
d="M111 0v1365h684q141 0 215 -23q169 -53 227 -217q30 -85 30 -260q0 -208 -33 -298q-65 -179 -271 -207q-3 0 -205 -7l-61 -2h-219v-351h-367zM478 666h229q102 0 134 17q51 27 51 179q0 158 -66 188q-33 15 -116 15h-232v-399z" />
    <glyph glyph-name="Q" unicode="Q" horiz-adv-x="1396" 
d="M1452 198l-149 -204l-139 99q-96 -67 -238 -89q-88 -14 -257 -14q-283 0 -404 74q-154 94 -190 283q-15 79 -15 260q0 352 36 476q53 181 263 254q109 38 359 38q254 0 360 -47q192 -85 236 -299q18 -88 18 -360q0 -255 -29 -365zM617 483l143 205l195 -137q1 49 1 135
q0 233 -24.5 291t-96.5 75q-37 9 -129 9q-131 0 -174 -18q-77 -32 -93 -173q-3 -23 -3 -212q0 -206 24 -269q23 -59 103 -76q39 -9 136 -9q92 0 148 15z" />
    <glyph glyph-name="R" unicode="R" horiz-adv-x="1363" 
d="M111 0v1365h689q214 0 305 -42q109 -50 150 -157q32 -81 32 -222q0 -272 -92 -347q-45 -36 -166 -65v-15q247 -13 247 -268v-249h-373v182q0 181 -153 181h-272v-363h-367zM478 673h290q110 0 131 62q13 39 13 154q0 100 -30.5 131t-130.5 31h-273v-378z" />
    <glyph glyph-name="S" unicode="S" horiz-adv-x="1304" 
d="M1197 939h-348q0 66 -10 92q-15 43 -65 56q-39 9 -117 9q-117 0 -154 -14q-69 -26 -69 -120q0 -77 39 -100q29 -17 144 -25q107 -6 213 -13q125 -10 210 -37q121 -38 165 -136q33 -72 33 -219q0 -166 -32 -245q-58 -143 -261 -181q-85 -16 -269 -16q-282 0 -398 35
q-184 56 -206 278q-5 51 -5 139h348v-27q0 -93 52 -119q38 -19 204 -19q85 0 97 1q54 7 84 40q26 29 26 97q0 79 -49 105q-29 15 -124 21q-314 19 -406 41q-139 34 -191 141q-40 82 -40 245q0 242 114 323q81 57 227 75q76 9 242 9q331 0 432 -76q116 -87 116 -297
q0 -18 -2 -63z" />
    <glyph glyph-name="T" unicode="T" horiz-adv-x="1111" 
d="M727 1051v-1051h-367v1051h-345v314h1081v-314h-369z" />
    <glyph glyph-name="U" unicode="U" horiz-adv-x="1409" 
d="M932 1365h367v-861q0 -235 -54 -328q-84 -146 -268 -172q-99 -14 -245 -14q-316 0 -434 55q-168 79 -184 301q-3 41 -3 128v891h367v-891q0 -69 12 -98q18 -44 74 -58q51 -14 160 -14q127 0 165 32q43 36 43 158v871z" />
    <glyph glyph-name="V" unicode="V" horiz-adv-x="1347" 
d="M972 1365h378l-399 -1365h-567l-387 1365h370l151 -526q80 -279 144 -526h11q70 266 146 526z" />
    <glyph glyph-name="W" unicode="W" horiz-adv-x="2035" 
d="M2038 1365l-304 -1365h-526l-96 428q-43 193 -89 427h-14q-15 -66 -23 -107q-18 -91 -73 -320l-103 -428h-521l-292 1365h367l101 -526q53 -277 95 -526h14l59 263l198 789h377l126 -526q61 -254 118 -526h14q43 249 93 498l6 28l107 526h366z" />
    <glyph glyph-name="X" unicode="X" horiz-adv-x="1386" 
d="M1368 1365l-385 -662l406 -703h-421l-267 552h-5l-33 -69l-32 -69l-204 -414h-430l410 703l-384 662h426l243 -501h5l60 125l186 376h425z" />
    <glyph glyph-name="Y" unicode="Y" horiz-adv-x="1342" 
d="M1345 1365l-498 -891v-474h-367v474l-483 891h417l124 -263q73 -154 121 -262h12l61 131l191 394h422z" />
    <glyph glyph-name="Z" unicode="Z" horiz-adv-x="1200" 
d="M1157 1365v-306l-652 -752h652v-307h-1115v308l643 750h-602v307h1074z" />
    <glyph glyph-name="bracketleft" unicode="[" horiz-adv-x="701" 
d="M109 1365h492v-273h-151v-1229h151v-273h-492v1775z" />
    <glyph glyph-name="backslash" unicode="\" horiz-adv-x="1160" 
d="M-80 1365h230l900 -1775h-230z" />
    <glyph glyph-name="bracketright" unicode="]" horiz-adv-x="701" 
d="M591 -410h-491v273h150v1229h-150v273h491v-1775z" />
    <glyph glyph-name="asciicircum" unicode="^" horiz-adv-x="1024" 
d="M322 707h-298l301 667h375l301 -667h-298l-190 438z" />
    <glyph glyph-name="underscore" unicode="_" horiz-adv-x="1024" 
d="M0 -109h1024v-200h-1024v200z" />
    <glyph glyph-name="grave" unicode="`" horiz-adv-x="1024" 
d="M291 1382l371 -219l-51 -106l-412 144z" />
    <glyph glyph-name="a" unicode="a" horiz-adv-x="1098" 
d="M423 672h-315q0 151 56 210q80 84 372 84q235 0 327 -48q111 -58 129 -192q9 -68 9 -106v-620h-311l11 155h-8q-35 -102 -110 -138q-57 -27 -179 -27q-177 0 -252 63q-82 68 -82 241q0 148 68 210q86 79 273 79q117 0 162 -13q79 -24 112 -105h5v187q0 72 -38 100
q-32 24 -108 24q-67 0 -90 -19q-27 -21 -31 -85zM530 395q-147 0 -147 -96q0 -74 52 -94q28 -11 120 -11q72 0 100 19q34 23 34 91q0 61 -53 80q-30 11 -106 11z" />
    <glyph glyph-name="b" unicode="b" horiz-adv-x="1121" 
d="M104 0v1365h311v-559h5q43 95 115 130q60 30 174 30q186 0 266 -84q60 -63 76 -174q7 -51 7 -195q0 -174 -2 -204q-10 -117 -57 -193q-78 -126 -305 -126q-120 0 -182 38q-69 42 -104 151h-5l12 -179h-311zM590 727q-108 1 -144 -56q-28 -44 -28 -161q0 -157 11 -193
q28 -90 143 -90q124 0 155 65q18 37 18 184q0 168 -31 209.5t-124 41.5z" />
    <glyph glyph-name="c" unicode="c" horiz-adv-x="1015" 
d="M671 382h304q-1 -96 -6 -137q-9 -79 -39 -130q-49 -83 -159 -110q-63 -15 -200 -15q-223 0 -314 39q-143 61 -177 209q-17 74 -17 238q0 282 83 380q93 110 370 110q202 0 304 -42q90 -37 122 -136q22 -67 22 -190h-301q-1 80 -26 107t-103 27q-118 0 -145 -67
q-13 -31 -13 -180q0 -154 11 -185q27 -75 144 -75q92 0 118 33q22 28 22 124z" />
    <glyph glyph-name="d" unicode="d" horiz-adv-x="1109" 
d="M1005 1365v-1365h-300l10 180h-5q-36 -110 -102 -151q-60 -39 -180 -39q-299 0 -347 215q-18 80 -18 267q0 157 5 203q14 119 68 188q81 103 287 103q106 0 164 -32q66 -36 102 -128h5v559h311zM525 727q-115 1 -141 -70q-12 -31 -12 -179q0 -172 34 -216q31 -40 121 -40
q108 0 141 50q26 39 26 156v153q-10 105 -61 129q-36 17 -108 17z" />
    <glyph glyph-name="e" unicode="e" horiz-adv-x="1045" 
d="M678 319h304v-19q0 -232 -184 -285q-85 -25 -253 -25q-376 0 -446 189q-36 95 -36 323q0 203 38 287q80 177 428 177q261 0 357.5 -95.5t96.5 -355.5q0 -21 -1 -90h-612q-1 -25 -1 -39q0 -100 32 -138q35 -41 132 -41q76 0 105 18q39 24 40 94zM683 597q-1 20 -1 30
q-1 98 -71 113q-27 5 -92 5q-111 0 -135 -53q-9 -20 -11 -95h310z" />
    <glyph glyph-name="f" unicode="f" horiz-adv-x="717" 
d="M161 0v731h-126v225h126v67q0 196 66 261q96 95 373 95h74v-232q-36 9 -69 9q-83 0 -113 -39q-20 -26 -20 -105v-56h216v-225h-216v-731h-311z" />
    <glyph glyph-name="g" unicode="g" horiz-adv-x="1117" 
d="M1013 956v-936q0 -268 -115 -363q-103 -84 -381 -84q-205 0 -300 49q-103 53 -116 189q-3 32 -5 103h297q0 -74 31 -96q24 -17 104 -17q91 0 127 22q47 29 47 113v234h-5q-63 -169 -269 -169q-273 0 -335 191q-30 92 -30 313q0 158 19 236q33 132 133 185q76 40 202 40
q123 0 186 -38q70 -43 107 -154h6l-14 182h311zM536 727q-120 1 -148 -68q-12 -31 -12 -183q0 -156 34 -197q31 -37 122 -37q101 0 135 40q31 37 31 140v72q0 148 -34 192q-32 40 -128 41z" />
    <glyph glyph-name="h" unicode="h" horiz-adv-x="1118" 
d="M415 1365v-601h5q39 112 90 152q63 50 199 50q313 0 313 -283v-683h-311v567q0 81 -16 108q-29 48 -110 48q-170 0 -170 -176v-547h-311v1365h311z" />
    <glyph glyph-name="i" unicode="i" horiz-adv-x="519" 
d="M415 1365v-232h-311v232h311zM415 956v-956h-311v956h311z" />
    <glyph glyph-name="j" unicode="j" horiz-adv-x="519" 
d="M415 1365v-232h-309v232h309zM415 956v-956q0 -164 -73 -231q-69 -65 -235 -65q-45 0 -92 10v216h17q45 0 64 35q8 15 8 69v922h311z" />
    <glyph glyph-name="k" unicode="k" horiz-adv-x="1079" 
d="M415 1365v-770h55l189 361h344l-270 -458l331 -498h-365l-229 392h-55v-392h-311v1365h311z" />
    <glyph glyph-name="l" unicode="l" horiz-adv-x="519" 
d="M415 1365v-1365h-311v1365h311z" />
    <glyph glyph-name="m" unicode="m" horiz-adv-x="1668" 
d="M104 956h311l-8 -148h5q55 158 272 158q278 0 284 -193h6q36 193 280 193q199 0 276 -115q42 -63 42 -211v-640h-311v537q0 99 -18 136q-23 47 -104 47q-97 0 -130 -55q-18 -30 -18 -101v-564h-311v564q0 86 -13 112q-22 44 -99 44q-153 0 -153 -156v-564h-311v956z" />
    <glyph glyph-name="n" unicode="n" horiz-adv-x="1114" 
d="M104 956h311l-12 -187h5q37 110 99.5 153.5t179.5 43.5q163 0 242 -63q88 -70 88 -228v-675h-311v547q0 94 -15 126q-24 50 -105 50q-171 0 -171 -162v-561h-311v956z" />
    <glyph glyph-name="o" unicode="o" horiz-adv-x="1080" 
d="M558 966q193 0 274 -31q117 -45 158 -171q27 -82 27 -243q0 -315 -76 -415q-88 -116 -389 -116q-182 0 -273 28q-172 53 -206 247q-10 57 -10 229q0 205 29 280q55 142 218 177q68 15 248 15zM541 734q-86 0 -115 -24q-50 -42 -50 -215q0 -152 14 -191q30 -82 149 -82
q107 0 138 53q27 47 27 230q0 128 -20 167q-32 62 -143 62z" />
    <glyph glyph-name="p" unicode="p" horiz-adv-x="1137" 
d="M104 956h311l-11 -159h6q52 97 99 128q64 41 206 41q173 0 257 -74q69 -61 91 -182q12 -69 12 -209q0 -153 -12 -226q-21 -132 -87 -203q-76 -82 -270 -82q-115 0 -174 32q-70 38 -101 139h-5v-571h-322v1366zM596 734q-114 1 -147 -62q-23 -42 -23 -171q0 -178 34 -225
t136 -47q113 0 145 68q21 42 21 173q0 147 -16 187q-31 76 -150 77z" />
    <glyph glyph-name="q" unicode="q" horiz-adv-x="1120" 
d="M1016 956v-1366h-311v570h-5q-33 -99 -102 -137q-59 -33 -172 -33q-212 0 -291 108q-53 72 -66 207q-6 55 -6 221q0 201 34 275q76 165 319 165q119 0 174 -31q64 -36 105 -140h10v161h311zM543 731q-107 0 -141 -49q-27 -39 -27 -154q0 -177 16 -229q22 -71 149 -71
q107 0 140 60q22 41 22 162q0 156 -13 194q-29 87 -146 87z" />
    <glyph glyph-name="r" unicode="r" horiz-adv-x="911" 
d="M104 956h311l-14 -154h5q35 76 73 110q60 54 170 54q184 0 229 -159q15 -53 17 -268h-283q1 18 1 23q0 86 -7 110q-15 57 -77 57q-79 0 -105 -76q-9 -26 -9 -99v-554h-311v956z" />
    <glyph glyph-name="s" unicode="s" horiz-adv-x="1052" 
d="M951 683h-296l-3 14q-11 50 -55 62q-20 6 -91 6q-87 0 -111 -14q-30 -17 -30 -66q0 -61 49 -73q17 -4 190 -13q116 -6 154 -11q94 -14 145 -49q90 -62 90 -222q0 -165 -97 -243q-104 -84 -388 -84q-340 0 -411 126q-35 60 -37 183h318v-18q0 -63 48 -79q23 -8 104 -8
t106 7q56 17 56 76q0 62 -39 81q-25 12 -97 13q-182 2 -245 12q-157 25 -208 111q-38 63 -38 176q0 180 102 241q92 55 359 55q142 0 212 -13q132 -25 178 -102q34 -57 35 -168z" />
    <glyph glyph-name="t" unicode="t" horiz-adv-x="883" 
d="M817 956v-225h-363v-388q0 -65 6 -85q14 -41 64 -41q74 0 83 79q3 26 3 97h250q-1 -24 -1 -38q-2 -145 -14 -190q-30 -113 -144 -151q-70 -24 -220 -24q-253 0 -312 127q-26 54 -26 165v449h-117v225h117v200h311v-200h363z" />
    <glyph glyph-name="u" unicode="u" horiz-adv-x="1115" 
d="M1012 956v-956h-311l16 197h-6q-63 -207 -296 -207q-209 0 -284 138q-34 63 -34 181v647h311v-546q0 -102 12 -124q28 -53 117 -53q107 0 147 74q17 31 17 149v500h311z" />
    <glyph glyph-name="v" unicode="v" horiz-adv-x="965" 
d="M977 956l-234 -956h-492l-263 956h327l89 -374q24 -98 66 -286l20 -95h6l19 95q17 87 58 286l80 374h324z" />
    <glyph glyph-name="w" unicode="w" horiz-adv-x="1525" 
d="M1523 956l-166 -956h-450l-69 341q-35 173 -51 260l-16 87h-9l-15 -87q-8 -45 -50 -260l-67 -341h-455l-174 956h302l56 -370q19 -127 53 -376h6l19 94q16 77 61 282l82 370h366l82 -370q22 -101 61 -282l19 -94h6l13 94q9 65 43 282l58 370h295z" />
    <glyph glyph-name="x" unicode="x" horiz-adv-x="996" 
d="M980 956l-251 -450l276 -506h-364l-140 315l-131 -315h-378l284 506l-247 450h364l108 -263l116 263h363z" />
    <glyph glyph-name="y" unicode="y" horiz-adv-x="970" 
d="M982 956l-234 -1020q-31 -136 -66 -199q-53 -98 -153 -133q-77 -26 -209 -26q-5 0 -32 1t-49 1h-16v214q29 -1 49 -1q108 0 143 83q23 54 28 124h-172l-283 956h327l188 -777h6q32 177 75 389l79 388h319z" />
    <glyph glyph-name="z" unicode="z" horiz-adv-x="902" 
d="M74 956h791v-248l-462 -485h462v-223h-825v259l451 476h-417v221z" />
    <glyph glyph-name="braceleft" unicode="{" horiz-adv-x="783" 
d="M375 477q123 -62 123 -253v-235q0 -107 41 -135q29 -20 126 -20h24v-244h-219q-264 0 -264 296v306q0 140 -111 163v245q111 23 111 163v306q0 296 264 296h219v-244h-26q-101 0 -128 -22q-23 -18 -29 -39q-8 -28 -8 -94v-235q0 -190 -123 -254z" />
    <glyph glyph-name="bar" unicode="|" horiz-adv-x="1024" 
d="M341 1365h341v-1706h-341v1706z" />
    <glyph glyph-name="braceright" unicode="}" horiz-adv-x="783" 
d="M408 477q-123 64 -123 254v235q0 66 -8 96q-18 59 -157 59h-26v244h219q264 0 264 -296v-306q0 -139 111 -163v-245q-111 -23 -111 -163v-306q0 -296 -264 -296h-219v244h24q102 0 130 22q24 18 30 40q7 29 7 93v235q0 190 123 253z" />
    <glyph glyph-name="asciitilde" unicode="~" horiz-adv-x="1365" 
d="M353 1118l-164 137q36 92 83 159q92 131 228 131q66 0 229 -67q117 -48 151 -48q74 0 138 121l163 -137q-57 -137 -115 -200q-81 -87 -206 -87q-66 0 -228 69q-101 43 -146 43q-69 0 -133 -121z" />
    <glyph glyph-name="exclamdown" unicode="&#xa1;" horiz-adv-x="636" 
d="M192 643v313h295v-313h-295zM165 -410l19 829h311l14 -829h-344z" />
    <glyph glyph-name="cent" unicode="&#xa2;" 
d="M815 546h292l1 -54q3 -142 -36 -211q-44 -78 -139 -110q-63 -21 -181 -27v-178h-177v178q-276 12 -338 201q-32 98 -32 312q0 237 50 321q79 133 320 154v149h177v-149q279 5 334 -182q18 -64 21 -190h-294q-3 61 -14 83q-29 57 -134 57t-130 -75q-10 -30 -10 -200
q0 -159 18 -192q25 -47 110 -47q98 0 128 30.5t34 129.5z" />
    <glyph glyph-name="sterling" unicode="&#xa3;" 
d="M957 756v-247h-345v-29q0 -78 -11 -107q-17 -43 -75 -72v-10h752v-291h-1150v291h16q79 0 98 53q10 28 10 101v64h-167v247h167v192q0 162 39 245q50 108 185 152q110 36 301 36q381 0 460 -150q42 -81 42 -253q0 -18 -1 -65h-357q1 94 -22 124q-27 36 -116 36
q-91 0 -127 -24q-44 -30 -44 -115v-178h345z" />
    <glyph glyph-name="currency" unicode="&#xa4;" horiz-adv-x="1473" 
d="M79 221l208 209q-73 128 -73 265q0 125 80 270l-215 213l175 174l218 -217q144 74 266 74q119 0 260 -72l216 213l173 -173l-209 -209q82 -138 82 -275q0 -121 -74 -263l209 -208l-172 -174l-208 207q-132 -82 -268 -82q-138 0 -287 81l-208 -205zM741 925
q-98 1 -164.5 -65.5t-66.5 -164.5q0 -95 66.5 -162t161.5 -67q96 0 162 67t66 163q0 95 -65 161.5t-160 67.5z" />
    <glyph glyph-name="yen" unicode="&#xa5;" 
d="M1106 1016h171v-242h-302l-76 -140h378v-242h-448v-392h-362v392h-433v242h366l-74 140h-292v242h165l-183 349h396l231 -525h12l240 525h400z" />
    <glyph glyph-name="brokenbar" unicode="&#xa6;" horiz-adv-x="1024" 
d="M341 1365h341v-728h-341v728zM341 314h341v-655h-341v655z" />
    <glyph glyph-name="section" unicode="&#xa7;" 
d="M1200 946h-350q-2 66 -6 83q-11 45 -51 59q-44 15 -163 15q-90 0 -120 -9q-63 -20 -63 -87q0 -55 37 -77q20 -12 90 -25l385 -73q104 -20 127 -27q72 -21 109 -64q65 -75 65 -244q0 -128 -29 -203q-18 -46 -81 -77q74 -32 98 -97q16 -43 16 -142q0 -242 -107 -321
q-126 -93 -531 -93q-184 0 -280 22q-168 38 -220 152q-40 88 -40 290h334q2 -54 7 -76q9 -45 34 -65q44 -36 205 -36q121 0 151 9q78 21 78 107q0 63 -37 87q-24 16 -98 29l-475 84q-150 27 -197 94q-41 59 -41 219q0 112 18 162q27 80 111 108q-64 50 -84 124
q-12 47 -12 153q0 122 32 184q38 75 142 117q142 58 432 58q256 0 359 -53q156 -80 156 -306q0 -30 -1 -81zM485 393l330 -61q43 -8 64 -8q87 0 87 140q0 76 -39 103q-23 16 -114 34l-263 51q-57 11 -79 11q-98 0 -98 -135q0 -99 46 -118q17 -8 66 -17z" />
    <glyph glyph-name="dieresis" unicode="&#xa8;" horiz-adv-x="1024" 
d="M420 1288v-189h-198v189h198zM802 1288v-189h-198v189h198z" />
    <glyph glyph-name="copyright" unicode="&#xa9;" horiz-adv-x="1524" 
d="M771 1377q190 0 357 -105q164 -103 251 -274q76 -150 76 -316q0 -196 -102 -362.5t-276 -255.5q-149 -76 -315 -76q-196 0 -362.5 102.5t-255.5 276.5q-76 148 -76 314q0 199 101.5 365t278.5 256q147 75 323 75zM770 1244q-238 3 -406.5 -162.5t-168.5 -401.5
q0 -237 165.5 -405t401.5 -168t401 168.5t165 404.5q0 162 -82 295.5t-227 207.5q-117 60 -249 61zM893 603h224v-30q0 -131 -33 -179q-53 -76 -153 -93q-36 -6 -157 -6q-167 0 -224 25q-128 56 -139 238q-5 80 -5 199q0 183 75 251q58 53 149 68q48 8 168 8q165 0 228 -38
q79 -48 85 -177q1 -20 2 -78h-224v22q-2 58 -37 73q-20 8 -90 8q-96 0 -113 -48q-11 -31 -11 -225q0 -83 24.5 -109.5t106.5 -26.5q67 0 90 12q35 18 35 76q0 5 -1 30z" />
    <glyph glyph-name="ordfeminine" unicode="&#xaa;" horiz-adv-x="874" 
d="M368 1195h-202q0 143 114 168q49 10 150 10q144 0 202 -30q83 -43 83 -170v-354h-201l5 67q-33 -48 -72 -62q-28 -10 -97 -10q-106 0 -153 35q-54 40 -54 142q0 168 211 168q66 0 88 -5q43 -9 73 -45v82q0 62 -81 62q-39 0 -51.5 -10.5t-14.5 -47.5zM425 1040
q-81 0 -81 -46q0 -38 31 -48q13 -4 65 -4q74 0 74 54q0 44 -89 44zM120 737h621v-116h-624z" />
    <glyph glyph-name="guillemotleft" unicode="&#xab;" horiz-adv-x="1025" 
d="M316 931l205 -110l-174 -331l174 -309l-194 -121l-244 430zM737 943l205 -111l-174 -330l174 -309l-195 -121l-243 430z" />
    <glyph glyph-name="logicalnot" unicode="&#xac;" horiz-adv-x="1024" 
d="M625 0v304h-557v297h887v-601h-330z" />
    <glyph glyph-name="registered" unicode="&#xae;" horiz-adv-x="1524" 
d="M771 1377q190 0 357 -105q164 -103 251 -274q76 -150 76 -316q0 -196 -102 -362.5t-276 -255.5q-149 -76 -315 -76q-196 0 -362.5 102.5t-255.5 276.5q-76 148 -76 314q0 199 101.5 365t278.5 256q147 75 323 75zM770 1244q-238 3 -406.5 -162.5t-168.5 -401.5
q0 -237 165.5 -405t401.5 -168t401 168.5t165 404.5q0 162 -82 295.5t-227 207.5q-117 60 -249 61zM414 300v779h406q213 0 265 -101q25 -51 25 -143q0 -109 -20 -151q-28 -60 -119 -81q132 -19 132 -156v-147h-230v109q0 95 -82 95h-150v-204h-227zM641 691h161q54 0 69 31
q8 18 8 83q0 54 -16.5 69t-70.5 15h-151v-198z" />
    <glyph glyph-name="overscore" unicode="&#xaf;" horiz-adv-x="1024" 
d="M0 1805h1024v-199h-1024v199z" />
    <glyph glyph-name="degree" unicode="&#xb0;" horiz-adv-x="789" 
d="M395 1369q135 1 228 -101q78 -86 78 -203q0 -135 -101 -226q-88 -79 -204 -79q-130 0 -218.5 90t-88.5 220q0 129 101 221q85 77 205 78zM395 1205q-57 0 -99 -40.5t-42 -97.5q0 -60 40.5 -101.5t100.5 -41.5q58 0 99.5 41.5t41.5 99.5q0 59 -41 99.5t-100 40.5z" />
    <glyph glyph-name="plusminus" unicode="&#xb1;" 
d="M117 1018h382v310h313v-310h381v-287h-381v-309h-313v309h-382v287zM117 322h1076v-287h-1076v287z" />
    <glyph glyph-name="twosuperior" unicode="&#xb2;" horiz-adv-x="886" 
d="M802 728v-182h-712v190q0 156 102 205q45 21 278 71q57 12 72 26q18 18 18 72q0 61 -42 75q-14 4 -99 4q-66 0 -82 -33q-9 -18 -10 -97h-233l-1 49q-2 99 27 149q66 114 324 114q217 0 293 -70q63 -58 63 -198q0 -175 -117 -222q-80 -32 -274 -71q-45 -9 -59 -19
q-23 -15 -23 -53v-10h475z" />
    <glyph glyph-name="threesuperior" unicode="&#xb3;" horiz-adv-x="886" 
d="M371 880v168h30q103 0 99 -1q52 9 52 63v17q0 47 -42 58q-13 3 -82 3q-76 0 -93.5 -16.5t-17.5 -90.5h-236q1 27 1 36q0 97 21 139q58 115 330 115q164 0 241 -33q118 -51 118 -191q0 -153 -120 -183q130 -28 130 -178q0 -130 -76 -186q-80 -59 -283 -59q-222 0 -298 56
q-79 58 -79 192q0 17 2 53h237q-2 -23 -2 -32q0 -61 38 -77q22 -9 95 -9q76 0 95 11q31 17 31 83q0 47 -37 57q-19 5 -126 5h-28z" />
    <glyph glyph-name="acute" unicode="&#xb4;" horiz-adv-x="1024" 
d="M733 1382l92 -181l-412 -144l-51 106z" />
    <glyph glyph-name="paragraph" unicode="&#xb6;" 
d="M1195 -410h-218v1515h-141v-1515h-218v760h-14l-61 1q-64 1 -127 2q-74 3 -126 16q-191 47 -238 251q-18 79 -18 246q0 253 86 361q108 136 339 138h736v-1775z" />
    <glyph glyph-name="middot" unicode="&#xb7;" 
d="M803 654v-313h-295v313h295z" />
    <glyph glyph-name="cedilla" unicode="&#xb8;" horiz-adv-x="1024" 
d="M572 -82l111 -142l-263 -161l-78 93z" />
    <glyph glyph-name="onesuperior" unicode="&#xb9;" horiz-adv-x="886" 
d="M666 1365v-819h-242v607l-227 -184l-143 147l331 249h281z" />
    <glyph glyph-name="ordmasculine" unicode="&#xba;" horiz-adv-x="874" 
d="M448 1373q169 0 225.5 -53.5t56.5 -204.5q0 -175 -48 -234q-55 -67 -236 -67q-183 0 -243 55q-42 38 -54 109q-5 34 -5 125q0 168 62 219t242 51zM439 1230q-63 0 -82 -32q-12 -22 -12 -94q0 -83 8 -104q17 -42 83 -42q68 0 85 43q8 21 8 108q0 69 -12 90q-17 31 -78 31z
M128 737h621v-116h-624z" />
    <glyph glyph-name="guillemotright" unicode="&#xbb;" horiz-adv-x="1025" 
d="M709 931l233 -441l-244 -430l-194 121l174 309l-174 331zM288 943l233 -441l-244 -430l-194 121l174 309l-174 330z" />
    <glyph glyph-name="onequarter" unicode="&#xbc;" horiz-adv-x="2164" 
d="M666 1365v-819h-242v607l-227 -184l-143 147l331 249h281zM1585 1365l-805 -1365h-201l806 1365h200zM2028 819v-490h75v-168h-75v-161h-242v161h-463v238l343 420h362zM1786 329v311l-256 -311h256z" />
    <glyph glyph-name="onehalf" unicode="&#xbd;" horiz-adv-x="2164" 
d="M666 1365v-819h-242v607l-227 -184l-143 147l331 249h281zM1585 1365l-805 -1365h-201l806 1365h200zM2079 182v-182h-712v190q0 156 102 205q45 21 278 70q57 12 72 26q18 18 18 72q0 61 -42 75q-14 4 -99 4q-66 0 -82 -32q-9 -18 -10 -97h-233l-1 49q-2 99 27 149
q66 114 324 114q217 0 293 -70q63 -58 63 -198q0 -174 -117 -222q-75 -31 -274 -71q-44 -9 -59 -19q-23 -16 -23 -53v-10h475z" />
    <glyph glyph-name="threequarters" unicode="&#xbe;" horiz-adv-x="2164" 
d="M371 880v168h30q103 0 99 -1q52 9 52 63v17q0 47 -42 58q-13 3 -82 3q-76 0 -93.5 -16.5t-17.5 -90.5h-236q1 27 1 36q0 97 21 139q57 115 330 115q163 0 241 -34q118 -51 118 -190q0 -153 -120 -183q130 -28 130 -178q0 -130 -76 -186q-80 -59 -283 -59q-223 0 -298 56
q-79 59 -79 192q0 17 2 53h237q-2 -23 -2 -32q0 -61 38 -77q22 -9 95 -9q76 0 95 11q31 17 31 83q0 47 -37 57q-19 5 -126 5h-28zM1612 1365l-805 -1365h-201l806 1365h200zM2028 819v-490h75v-168h-75v-161h-242v161h-464v238l343 420h363zM1786 329v311l-256 -311h256z
" />
    <glyph glyph-name="questiondown" unicode="&#xbf;" horiz-adv-x="1102" 
d="M451 643v313h295v-313h-295zM439 473h315q1 -164 -24 -218q-33 -73 -163 -137q-117 -57 -139 -76q-37 -31 -37 -90q0 -75 37 -101q31 -22 110 -22q80 0 114 18q49 26 49 97q0 11 -2 44h312q-1 -24 -2 -56q-2 -95 -11 -134q-15 -70 -63 -115q-111 -103 -408 -103
q-235 0 -330 67q-115 81 -115 303q0 184 94 265q42 36 166 91q65 29 83 62q15 29 14 105z" />
    <glyph glyph-name="Agrave" unicode="&#xc0;" horiz-adv-x="1352" 
d="M439 1769l398 -183l-35 -119l-426 89zM923 235h-491l-66 -235h-380l410 1365h554l415 -1365h-372zM850 500l-172 593l-167 -593h339z" />
    <glyph glyph-name="Aacute" unicode="&#xc1;" horiz-adv-x="1352" 
d="M919 1769l63 -213l-426 -89l-35 119zM923 235h-491l-66 -235h-380l410 1365h554l415 -1365h-372zM850 500l-172 593l-167 -593h339z" />
    <glyph glyph-name="Acircumflex" unicode="&#xc2;" horiz-adv-x="1352" 
d="M672 1770l334 -199l-46 -103l-288 103l-277 -103l-49 103zM923 235h-491l-66 -235h-380l410 1365h554l415 -1365h-372zM850 500l-172 593l-167 -593h339z" />
    <glyph glyph-name="Atilde" unicode="&#xc3;" horiz-adv-x="1352" 
d="M923 235h-491l-66 -235h-380l410 1365h554l415 -1365h-372zM850 500l-172 593l-167 -593h339zM927 1743l154 -62q-26 -66 -54 -105q-67 -94 -177 -94q-72 0 -160 47q-95 51 -129 51q-67 0 -107 -91l-156 66q56 109 106 147q64 49 136 49q57 0 147 -46q105 -54 145 -54
q57 0 95 92z" />
    <glyph glyph-name="Adieresis" unicode="&#xc4;" horiz-adv-x="1352" 
d="M923 235h-491l-66 -235h-380l410 1365h554l415 -1365h-372zM850 500l-172 593l-167 -593h339zM591 1711v-202h-205v202h205zM966 1711v-202h-205v202h205z" />
    <glyph glyph-name="Aring" unicode="&#xc5;" horiz-adv-x="1352" 
d="M923 235h-491l-66 -235h-380l410 1365h554l415 -1365h-372zM850 500l-172 593l-167 -593h339zM678 1802q75 0 129 -59q46 -51 46 -118q0 -79 -59 -132q-51 -46 -119 -46q-78 0 -131 59q-46 51 -46 120q0 74 53 125t127 51zM677 1706q-34 0 -58.5 -23.5t-24.5 -57.5
t23.5 -58t57.5 -24t58 23.5t24 57.5t-23 58t-57 24z" />
    <glyph glyph-name="AE" unicode="&#xc6;" horiz-adv-x="2002" 
d="M1306 1065v-246h570v-253h-570v-266h620v-300h-974v239h-467l-92 -239h-393l534 1365h1392v-300h-620zM952 496v569h-153l-217 -569h370z" />
    <glyph glyph-name="Ccedilla" unicode="&#xc7;" horiz-adv-x="1306" 
d="M699 -82l117 -155l-269 -175l-85 107zM903 516h362v-41q-1 -117 -6 -162q-11 -96 -49 -152q-88 -131 -255 -160q-63 -11 -269 -11q-155 0 -194 3q-113 8 -187 41q-215 98 -234 414q-8 135 -8 356q0 153 18 235q27 127 108 204q97 92 252 118q81 14 284 14q223 0 311 -29
q198 -65 218 -318q3 -36 5 -151h-363q-1 16 -1 27q-2 108 -64 138q-38 19 -165 19q-174 0 -207 -95q-20 -57 -20 -406q0 -153 43 -202q46 -54 195 -54q121 0 166 26q61 36 61 145q0 8 -1 41z" />
    <glyph glyph-name="Egrave" unicode="&#xc8;" horiz-adv-x="1188" 
d="M398 1769l398 -183l-35 -119l-426 89zM478 1065v-246h582v-253h-582v-266h634v-300h-1001v1365h989v-300h-622z" />
    <glyph glyph-name="Eacute" unicode="&#xc9;" horiz-adv-x="1188" 
d="M865 1769l63 -213l-426 -89l-35 119zM478 1065v-246h582v-253h-582v-266h634v-300h-1001v1365h989v-300h-622z" />
    <glyph glyph-name="Ecircumflex" unicode="&#xca;" horiz-adv-x="1188" 
d="M631 1770l334 -199l-46 -103l-288 103l-277 -103l-49 103zM478 1065v-246h582v-253h-582v-266h634v-300h-1001v1365h989v-300h-622z" />
    <glyph glyph-name="Edieresis" unicode="&#xcb;" horiz-adv-x="1188" 
d="M537 1711v-202h-205v202h205zM912 1711v-202h-205v202h205zM478 1065v-246h582v-253h-582v-266h634v-300h-1001v1365h989v-300h-622z" />
    <glyph glyph-name="Igrave" unicode="&#xcc;" horiz-adv-x="588" 
d="M43 1769l398 -183l-35 -119l-426 89zM477 1365v-1365h-367v1365h367z" />
    <glyph glyph-name="Iacute" unicode="&#xcd;" horiz-adv-x="588" 
d="M552 1769l63 -213l-426 -89l-35 119zM478 1365v-1365h-367v1365h367z" />
    <glyph glyph-name="Icircumflex" unicode="&#xce;" horiz-adv-x="588" 
d="M304 1770l334 -199l-46 -103l-288 103l-277 -103l-49 103zM478 1365v-1365h-367v1365h367z" />
    <glyph glyph-name="Idieresis" unicode="&#xcf;" horiz-adv-x="589" 
d="M257 1711v-202h-205v202h205zM537 1711v-202h-205v202h205zM478 1365v-1365h-367v1365h367z" />
    <glyph glyph-name="Eth" unicode="&#xd0;" horiz-adv-x="1419" 
d="M111 599h-127v197h127v569h715q213 0 329 -70q205 -123 201 -439l-2 -162q-3 -252 -15 -339q-48 -355 -534 -355h-694v599zM478 599v-285h296q125 0 170 79q37 64 37 310q0 221 -36 279q-41 65 -170 65h-297v-251h260v-197h-260z" />
    <glyph glyph-name="Ntilde" unicode="&#xd1;" horiz-adv-x="1585" 
d="M1475 1365v-1365h-621l-385 1051h-16l6 -126q10 -210 10 -379v-546h-358v1365h616l217 -575q96 -255 168 -463h15l-6 123q-9 184 -9 369v546h363zM1030 1743l154 -62q-26 -66 -54 -105q-67 -94 -177 -94q-72 0 -160 47q-95 51 -129 51q-67 0 -107 -91l-156 66
q56 109 106 147q64 49 136 49q57 0 147 -46q105 -54 145 -54q57 0 95 92z" />
    <glyph glyph-name="Ograve" unicode="&#xd2;" horiz-adv-x="1397" 
d="M448 1769l398 -183l-35 -119l-426 89zM720 1375q252 0 360 -47q192 -84 236 -299q18 -88 18 -354q0 -223 -14 -305q-40 -234 -222 -319q-130 -61 -424 -61q-285 0 -406 74q-154 95 -190 283q-15 79 -15 263q0 344 36 473q50 179 263 254q106 38 358 38zM709 1061
q-127 1 -174 -19q-77 -32 -93 -170q-3 -23 -3 -210q0 -211 24 -274q23 -59 104 -76q38 -8 138 -8q96 0 134 11q67 20 93.5 87.5t26.5 294.5q0 223 -25 280.5t-96 74.5q-36 9 -129 9z" />
    <glyph glyph-name="Oacute" unicode="&#xd3;" horiz-adv-x="1397" 
d="M942 1769l63 -213l-426 -89l-35 119zM720 1375q252 0 360 -47q192 -84 236 -299q18 -88 18 -354q0 -223 -14 -305q-40 -234 -222 -319q-130 -61 -424 -61q-285 0 -406 74q-154 95 -190 283q-15 79 -15 263q0 344 36 473q50 179 263 254q106 38 358 38zM709 1061
q-127 1 -174 -19q-77 -32 -93 -170q-3 -23 -3 -210q0 -211 24 -274q23 -59 104 -76q38 -8 138 -8q96 0 134 11q67 20 93.5 87.5t26.5 294.5q0 223 -25 280.5t-96 74.5q-36 9 -129 9z" />
    <glyph glyph-name="Ocircumflex" unicode="&#xd4;" horiz-adv-x="1397" 
d="M695 1770l334 -199l-46 -103l-288 103l-277 -103l-49 103zM720 1375q252 0 360 -47q192 -84 236 -299q18 -88 18 -354q0 -223 -14 -305q-40 -234 -222 -319q-130 -61 -424 -61q-285 0 -406 74q-154 95 -190 283q-15 79 -15 263q0 344 36 473q50 179 263 254
q106 38 358 38zM709 1061q-127 1 -174 -19q-77 -32 -93 -170q-3 -23 -3 -210q0 -211 24 -274q23 -59 104 -76q38 -8 138 -8q96 0 134 11q67 20 93.5 87.5t26.5 294.5q0 223 -25 280.5t-96 74.5q-36 9 -129 9z" />
    <glyph glyph-name="Otilde" unicode="&#xd5;" horiz-adv-x="1397" 
d="M720 1375q252 0 360 -47q192 -84 236 -299q18 -88 18 -354q0 -223 -14 -305q-40 -234 -222 -319q-130 -61 -424 -61q-285 0 -406 74q-154 95 -190 283q-15 79 -15 263q0 344 36 473q50 179 263 254q106 38 358 38zM709 1061q-127 1 -174 -19q-77 -32 -93 -170
q-3 -23 -3 -210q0 -211 24 -274q23 -59 104 -76q38 -8 138 -8q96 0 134 11q67 20 93.5 87.5t26.5 294.5q0 223 -25 280.5t-96 74.5q-36 9 -129 9zM956 1743l154 -62q-26 -66 -54 -105q-67 -94 -177 -94q-72 0 -160 47q-95 51 -129 51q-67 0 -107 -91l-156 66q56 109 106 147
q64 49 136 49q57 0 147 -46q105 -54 145 -54q57 0 95 92z" />
    <glyph glyph-name="Odieresis" unicode="&#xd6;" horiz-adv-x="1397" 
d="M720 1375q252 0 360 -47q192 -84 236 -299q18 -88 18 -354q0 -223 -14 -305q-40 -234 -222 -319q-130 -61 -424 -61q-285 0 -406 74q-154 95 -190 283q-15 79 -15 263q0 344 36 473q50 179 263 254q106 38 358 38zM709 1061q-127 1 -174 -19q-77 -32 -93 -170
q-3 -23 -3 -210q0 -211 24 -274q23 -59 104 -76q38 -8 138 -8q96 0 134 11q67 20 93.5 87.5t26.5 294.5q0 223 -25 280.5t-96 74.5q-36 9 -129 9zM614 1711v-202h-205v202h205zM989 1711v-202h-205v202h205z" />
    <glyph glyph-name="multiply" unicode="&#xd7;" 
d="M442 683l-328 328l213 213l328 -328l328 328l213 -213l-328 -328l328 -328l-213 -214l-328 329l-328 -329l-213 214z" />
    <glyph glyph-name="Oslash" unicode="&#xd8;" horiz-adv-x="1416" 
d="M0 -38v257l98 82q-26 103 -26 305q0 352 36 477q52 180 263 254q108 38 342 38q189 0 270 -16q141 -27 236 -119l197 165v-257l-99 -83q27 -103 27 -388q0 -225 -14 -307q-47 -273 -289 -344q-124 -36 -352 -36q-179 0 -263 18q-137 28 -230 119zM483 367q36 -47 108 -58
q28 -5 127 -5q93 0 132 12q65 20 91.5 87t26.5 274v96zM931 999q-36 46 -102 58q-26 4 -122 4q-120 0 -163 -18q-76 -31 -92 -166q-4 -29 -4 -205q0 -9 1 -78z" />
    <glyph glyph-name="Ugrave" unicode="&#xd9;" horiz-adv-x="1409" 
d="M468 1769l398 -183l-35 -119l-426 89zM932 1365h367v-861q0 -235 -54 -328q-84 -146 -268 -172q-99 -14 -245 -14q-316 0 -434 55q-168 79 -184 301q-3 41 -3 128v891h367v-891q0 -69 12 -98q18 -44 74 -58q51 -14 160 -14q127 0 165 32q43 36 43 158v871z" />
    <glyph glyph-name="Uacute" unicode="&#xda;" horiz-adv-x="1409" 
d="M962 1769l63 -213l-426 -89l-35 119zM932 1365h367v-861q0 -235 -54 -328q-84 -146 -268 -172q-99 -14 -245 -14q-316 0 -434 55q-168 79 -184 301q-3 41 -3 128v891h367v-891q0 -69 12 -98q18 -44 74 -58q51 -14 160 -14q127 0 165 32q43 36 43 158v871z" />
    <glyph glyph-name="Ucircumflex" unicode="&#xdb;" horiz-adv-x="1409" 
d="M701 1770l334 -199l-46 -103l-288 103l-277 -103l-49 103zM932 1365h367v-861q0 -235 -54 -328q-84 -146 -268 -172q-99 -14 -245 -14q-316 0 -434 55q-168 79 -184 301q-3 41 -3 128v891h367v-891q0 -69 12 -98q18 -44 74 -58q51 -14 160 -14q127 0 165 32q43 36 43 158
v871z" />
    <glyph glyph-name="Udieresis" unicode="&#xdc;" horiz-adv-x="1409" 
d="M620 1711v-202h-205v202h205zM995 1711v-202h-205v202h205zM932 1365h367v-861q0 -235 -54 -328q-84 -146 -268 -172q-99 -14 -245 -14q-316 0 -434 55q-168 79 -184 301q-3 41 -3 128v891h367v-891q0 -69 12 -98q18 -44 74 -58q51 -14 160 -14q127 0 165 32
q43 36 43 158v871z" />
    <glyph glyph-name="Yacute" unicode="&#xdd;" horiz-adv-x="1342" 
d="M935 1769l63 -213l-426 -89l-35 119zM1345 1365l-498 -891v-474h-367v474l-483 891h417l124 -263q73 -154 121 -262h12l61 131l191 394h422z" />
    <glyph glyph-name="Thorn" unicode="&#xde;" horiz-adv-x="1303" 
d="M111 0v1365h367v-136h317q140 0 215 -23q169 -52 227 -217q30 -86 30 -260q0 -209 -33 -299q-66 -180 -271 -208q-31 -4 -205 -7l-61 -1h-219v-214h-367zM478 529h229q102 0 134 17q51 27 51 180q0 158 -66 188q-33 15 -116 15h-232v-400z" />
    <glyph glyph-name="germandbls" unicode="&#xdf;" horiz-adv-x="1130" 
d="M104 0v960q0 217 69 298q64 76 182 101q72 16 212 16q263 0 353 -70q86 -67 86 -215q0 -217 -233 -242v-6q129 -8 190 -56q104 -82 104 -336q0 -227 -75 -334q-88 -126 -302 -126q-75 0 -172 14v221q47 -14 84 -14q96 0 127 57q26 48 26 218q0 123 -26 178
q-38 79 -146 79q-12 0 -33 -2v218q19 -2 35 -2q132 0 132 93q0 111 -144 111q-102 0 -133 -44q-25 -35 -25 -144v-973h-311z" />
    <glyph glyph-name="agrave" unicode="&#xe0;" horiz-adv-x="1098" 
d="M423 672h-315q0 151 56 210q80 84 372 84q235 0 327 -48q111 -58 129 -192q9 -68 9 -106v-620h-311l11 155h-8q-35 -102 -110 -138q-57 -27 -179 -27q-177 0 -252 63q-82 68 -82 241q0 148 68 210q86 79 273 79q117 0 162 -13q79 -24 112 -105h5v187q0 72 -38 100
q-32 24 -108 24q-67 0 -90 -19q-27 -21 -31 -85zM530 395q-147 0 -147 -96q0 -74 52 -94q28 -11 120 -11q72 0 100 19q34 23 34 91q0 61 -53 80q-30 11 -106 11zM342 1382l371 -219l-51 -106l-412 144z" />
    <glyph glyph-name="aacute" unicode="&#xe1;" horiz-adv-x="1098" 
d="M423 672h-315q0 151 56 210q80 84 372 84q235 0 327 -48q111 -58 129 -192q9 -68 9 -106v-620h-311l11 155h-8q-35 -102 -110 -138q-57 -27 -179 -27q-177 0 -252 63q-82 68 -82 241q0 148 68 210q86 79 273 79q117 0 162 -13q79 -24 112 -105h5v187q0 72 -38 100
q-32 24 -108 24q-67 0 -90 -19q-27 -21 -31 -85zM530 395q-147 0 -147 -96q0 -74 52 -94q28 -11 120 -11q72 0 100 19q34 23 34 91q0 61 -53 80q-30 11 -106 11zM771 1382l92 -181l-412 -144l-51 106z" />
    <glyph glyph-name="acircumflex" unicode="&#xe2;" horiz-adv-x="1098" 
d="M423 672h-315q0 151 56 210q80 84 372 84q235 0 327 -48q111 -58 129 -192q9 -68 9 -106v-620h-311l11 155h-8q-35 -102 -110 -138q-57 -27 -179 -27q-177 0 -252 63q-82 68 -82 241q0 148 68 210q86 79 273 79q117 0 162 -13q79 -24 112 -105h5v187q0 72 -38 100
q-32 24 -108 24q-67 0 -90 -19q-27 -21 -31 -85zM530 395q-147 0 -147 -96q0 -74 52 -94q28 -11 120 -11q72 0 100 19q34 23 34 91q0 61 -53 80q-30 11 -106 11zM559 1362l334 -199l-46 -103l-288 103l-277 -103l-49 103z" />
    <glyph glyph-name="atilde" unicode="&#xe3;" horiz-adv-x="1098" 
d="M423 672h-315q0 151 56 210q80 84 372 84q235 0 327 -48q111 -58 129 -192q9 -68 9 -106v-620h-311l11 155h-8q-35 -102 -110 -138q-57 -27 -179 -27q-177 0 -252 63q-82 68 -82 241q0 148 68 210q86 79 273 79q117 0 162 -13q79 -24 112 -105h5v187q0 72 -38 100
q-32 24 -108 24q-67 0 -90 -19q-27 -21 -31 -85zM530 395q-147 0 -147 -96q0 -74 52 -94q28 -11 120 -11q72 0 100 19q34 23 34 91q0 61 -53 80q-30 11 -106 11zM793 1340l150 -62q-26 -64 -55 -105q-66 -94 -178 -94q-67 0 -151 47q-90 50 -122 50q-64 0 -104 -90l-150 66
q50 95 91 136q62 59 147 59q55 0 121 -33q56 -29 113 -58q17 -8 41 -8q59 0 97 92z" />
    <glyph glyph-name="adieresis" unicode="&#xe4;" horiz-adv-x="1098" 
d="M423 672h-315q0 151 56 210q80 84 372 84q235 0 327 -48q111 -58 129 -192q9 -68 9 -106v-620h-311l11 155h-8q-35 -102 -110 -138q-57 -27 -179 -27q-177 0 -252 63q-82 68 -82 241q0 148 68 210q86 79 273 79q117 0 162 -13q79 -24 112 -105h5v187q0 72 -38 100
q-32 24 -108 24q-67 0 -90 -19q-27 -21 -31 -85zM530 395q-147 0 -147 -96q0 -74 52 -94q28 -11 120 -11q72 0 100 19q34 23 34 91q0 61 -53 80q-30 11 -106 11zM457 1288v-189h-198v189h198zM839 1288v-189h-198v189h198z" />
    <glyph glyph-name="aring" unicode="&#xe5;" horiz-adv-x="1098" 
d="M423 672h-315q0 151 56 210q80 84 372 84q235 0 327 -48q111 -58 129 -192q9 -68 9 -106v-620h-311l11 155h-8q-35 -102 -110 -138q-57 -27 -179 -27q-177 0 -252 63q-82 68 -82 241q0 148 68 210q86 79 273 79q117 0 162 -13q79 -24 112 -105h5v187q0 72 -38 100
q-32 24 -108 24q-67 0 -90 -19q-27 -21 -31 -85zM530 395q-147 0 -147 -96q0 -74 52 -94q28 -11 120 -11q72 0 100 19q34 23 34 91q0 61 -53 80q-30 11 -106 11zM552 1399q75 0 129 -59q46 -51 46 -118q0 -79 -59 -132q-51 -46 -118 -46q-79 0 -132 59q-46 51 -46 120
q0 74 53 125t127 51zM551 1303q-34 0 -58.5 -23.5t-24.5 -57.5q0 -35 23.5 -58.5t58.5 -23.5q34 0 57.5 24t23.5 58q0 33 -23.5 57t-56.5 24z" />
    <glyph glyph-name="ae" unicode="&#xe6;" horiz-adv-x="1652" 
d="M1589 430h-605v-31q0 -110 31 -147t121 -37q89 0 113 12q36 20 42 97h298v-29q0 -141 -74 -212q-97 -93 -361 -93q-300 0 -351 146h-5q-47 -98 -153 -128q-62 -18 -209 -18q-215 0 -296 73q-70 63 -70 228q0 146 60 209q83 86 313 86q202 0 235 -116h5v166q0 68 -15 90
q-30 45 -121 45q-67 0 -93 -18q-31 -21 -35 -84h-311q6 139 51 200q72 97 343 97q136 0 201 -17q115 -29 146 -120h4q38 137 310 137q251 0 343 -109q83 -99 83 -357v-70zM1296 598q-3 96 -36 123q-30 24 -129 24q-97 0 -127 -43q-18 -26 -19 -104h311zM535 392
q-76 0 -105 -12q-48 -20 -48 -83q0 -62 40 -84q29 -15 98 -15q88 0 114 9q55 18 55 85q0 70 -44 89q-25 11 -110 11z" />
    <glyph glyph-name="ccedilla" unicode="&#xe7;" horiz-adv-x="1015" 
d="M671 382h304q-1 -96 -6 -137q-9 -79 -39 -130q-49 -83 -159 -110q-63 -15 -200 -15q-223 0 -314 39q-143 61 -177 209q-17 74 -17 238q0 282 83 380q93 110 370 110q202 0 304 -42q90 -37 122 -136q22 -67 22 -190h-301q-1 80 -26 107t-103 27q-118 0 -145 -67
q-13 -31 -13 -180q0 -154 11 -185q27 -75 144 -75q92 0 118 33q22 28 22 124zM540 -82l111 -142l-263 -161l-78 93z" />
    <glyph glyph-name="egrave" unicode="&#xe8;" horiz-adv-x="1045" 
d="M678 319h304v-19q0 -232 -184 -285q-85 -25 -253 -25q-376 0 -446 189q-36 95 -36 323q0 203 38 287q80 177 428 177q261 0 357.5 -95.5t96.5 -355.5q0 -21 -1 -90h-612q-1 -25 -1 -39q0 -100 32 -138q35 -41 132 -41q76 0 105 18q39 24 40 94zM683 597q-1 20 -1 30
q-1 98 -71 113q-27 5 -92 5q-111 0 -135 -53q-9 -20 -11 -95h310zM315 1382l371 -219l-51 -106l-412 144z" />
    <glyph glyph-name="eacute" unicode="&#xe9;" horiz-adv-x="1045" 
d="M678 319h304v-19q0 -232 -184 -285q-85 -25 -253 -25q-376 0 -446 189q-36 95 -36 323q0 203 38 287q80 177 428 177q261 0 357.5 -95.5t96.5 -355.5q0 -21 -1 -90h-612q-1 -25 -1 -39q0 -100 32 -138q35 -41 132 -41q76 0 105 18q39 24 40 94zM683 597q-1 20 -1 30
q-1 98 -71 113q-27 5 -92 5q-111 0 -135 -53q-9 -20 -11 -95h310zM744 1382l92 -181l-412 -144l-51 106z" />
    <glyph glyph-name="ecircumflex" unicode="&#xea;" horiz-adv-x="1045" 
d="M678 319h304v-19q0 -232 -184 -285q-85 -25 -253 -25q-376 0 -446 189q-36 95 -36 323q0 203 38 287q80 177 428 177q261 0 357.5 -95.5t96.5 -355.5q0 -21 -1 -90h-612q-1 -25 -1 -39q0 -100 32 -138q35 -41 132 -41q76 0 105 18q39 24 40 94zM683 597q-1 20 -1 30
q-1 98 -71 113q-27 5 -92 5q-111 0 -135 -53q-9 -20 -11 -95h310zM533 1362l334 -199l-46 -103l-288 103l-277 -103l-49 103z" />
    <glyph glyph-name="edieresis" unicode="&#xeb;" horiz-adv-x="1045" 
d="M678 319h304v-19q0 -232 -184 -285q-85 -25 -253 -25q-376 0 -446 189q-36 95 -36 323q0 203 38 287q80 177 428 177q261 0 357.5 -95.5t96.5 -355.5q0 -21 -1 -90h-612q-1 -25 -1 -39q0 -100 32 -138q35 -41 132 -41q76 0 105 18q39 24 40 94zM683 597q-1 20 -1 30
q-1 98 -71 113q-27 5 -92 5q-111 0 -135 -53q-9 -20 -11 -95h310zM445 1288v-189h-198v189h198zM827 1288v-189h-198v189h198z" />
    <glyph glyph-name="igrave" unicode="&#xec;" horiz-adv-x="519" 
d="M415 956v-956h-311v956h311zM52 1382l371 -219l-51 -106l-412 144z" />
    <glyph glyph-name="iacute" unicode="&#xed;" horiz-adv-x="519" 
d="M415 956v-956h-311v956h311zM481 1382l92 -181l-412 -144l-51 106z" />
    <glyph glyph-name="icircumflex" unicode="&#xee;" horiz-adv-x="519" 
d="M415 956v-956h-311v956h311zM256 1362l306 -199l-46 -103l-260 103l-250 -103l-49 103z" />
    <glyph glyph-name="idieresis" unicode="&#xef;" horiz-adv-x="519" 
d="M198 1288v-189h-198v189h198zM519 1288v-189h-198v189h198zM415 956v-956h-311v956h311z" />
    <glyph glyph-name="eth" unicode="&#xf0;" horiz-adv-x="1080" 
d="M477 1093l-138 -66l-54 111l127 60l-96 167h312l32 -54l123 60l56 -109l-118 -58l182 -304q87 -145 98 -182q16 -54 16 -198q0 -314 -76 -414q-88 -116 -394 -116q-150 0 -230 18q-132 30 -191 116q-45 65 -57 176q-6 50 -6 187q0 241 47 325q77 137 310 150q52 3 128 3z
M541 733q-86 0 -115 -24q-50 -42 -50 -214q0 -152 14 -191q30 -82 149 -82q107 0 138 53q27 47 27 230q0 127 -20 167q-32 61 -143 61z" />
    <glyph glyph-name="ntilde" unicode="&#xf1;" horiz-adv-x="1114" 
d="M104 956h311l-12 -187h5q37 110 99.5 153.5t179.5 43.5q163 0 242 -63q88 -70 88 -228v-675h-311v547q0 94 -15 126q-24 50 -105 50q-171 0 -171 -162v-561h-311v956zM787 1340l150 -62q-26 -64 -55 -105q-66 -94 -178 -94q-67 0 -151 47q-90 50 -122 50q-64 0 -104 -90
l-150 66q50 95 91 136q62 59 147 59q55 0 121 -33q56 -29 113 -58q17 -8 41 -8q59 0 97 92z" />
    <glyph glyph-name="ograve" unicode="&#xf2;" horiz-adv-x="1080" 
d="M558 966q193 0 274 -31q117 -45 158 -171q27 -82 27 -243q0 -315 -76 -415q-88 -116 -389 -116q-182 0 -273 28q-172 53 -206 247q-10 57 -10 229q0 205 29 280q55 142 218 177q68 15 248 15zM541 734q-86 0 -115 -24q-50 -42 -50 -215q0 -152 14 -191q30 -82 149 -82
q107 0 138 53q27 47 27 230q0 128 -20 167q-32 62 -143 62zM332 1382l371 -219l-51 -106l-412 144z" />
    <glyph glyph-name="oacute" unicode="&#xf3;" horiz-adv-x="1080" 
d="M558 966q193 0 274 -31q117 -45 158 -171q27 -82 27 -243q0 -315 -76 -415q-88 -116 -389 -116q-182 0 -273 28q-172 53 -206 247q-10 57 -10 229q0 205 29 280q55 142 218 177q68 15 248 15zM541 734q-86 0 -115 -24q-50 -42 -50 -215q0 -152 14 -191q30 -82 149 -82
q107 0 138 53q27 47 27 230q0 128 -20 167q-32 62 -143 62zM762 1382l92 -181l-412 -144l-51 106z" />
    <glyph glyph-name="ocircumflex" unicode="&#xf4;" horiz-adv-x="1080" 
d="M558 966q193 0 274 -31q117 -45 158 -171q27 -82 27 -243q0 -315 -76 -415q-88 -116 -389 -116q-182 0 -273 28q-172 53 -206 247q-10 57 -10 229q0 205 29 280q55 142 218 177q68 15 248 15zM541 734q-86 0 -115 -24q-50 -42 -50 -215q0 -152 14 -191q30 -82 149 -82
q107 0 138 53q27 47 27 230q0 128 -20 167q-32 62 -143 62zM536 1362l334 -199l-46 -103l-288 103l-277 -103l-49 103z" />
    <glyph glyph-name="otilde" unicode="&#xf5;" horiz-adv-x="1080" 
d="M558 966q193 0 274 -31q117 -45 158 -171q27 -82 27 -243q0 -315 -76 -415q-88 -116 -389 -116q-182 0 -273 28q-172 53 -206 247q-10 57 -10 229q0 205 29 280q55 142 218 177q68 15 248 15zM541 734q-86 0 -115 -24q-50 -42 -50 -215q0 -152 14 -191q30 -82 149 -82
q107 0 138 53q27 47 27 230q0 128 -20 167q-32 62 -143 62zM784 1340l150 -62q-26 -64 -55 -105q-66 -94 -178 -94q-67 0 -151 47q-90 50 -122 50q-64 0 -104 -90l-150 66q50 95 91 136q62 59 147 59q55 0 121 -33q56 -29 113 -58q17 -8 41 -8q59 0 97 92z" />
    <glyph glyph-name="odieresis" unicode="&#xf6;" horiz-adv-x="1080" 
d="M558 966q193 0 274 -31q117 -45 158 -171q27 -82 27 -243q0 -315 -76 -415q-88 -116 -389 -116q-182 0 -273 28q-172 53 -206 247q-10 57 -10 229q0 205 29 280q55 142 218 177q68 15 248 15zM541 734q-86 0 -115 -24q-50 -42 -50 -215q0 -152 14 -191q30 -82 149 -82
q107 0 138 53q27 47 27 230q0 128 -20 167q-32 62 -143 62zM448 1288v-189h-198v189h198zM830 1288v-189h-198v189h198z" />
    <glyph glyph-name="divide" unicode="&#xf7;" 
d="M658 1293q82 0 137 -62q47 -53 47 -125q0 -78 -54.5 -132.5t-132.5 -54.5t-132.5 55t-54.5 133q0 80 55 133t135 53zM658 447q77 0 130.5 -54.5t53.5 -132.5t-54.5 -132.5t-132.5 -54.5t-132.5 55t-54.5 133q0 80 55 133t135 53zM117 826h1076v-287h-1076v287z" />
    <glyph glyph-name="oslash" unicode="&#xf8;" horiz-adv-x="1106" 
d="M0 14v155l92 64q-16 74 -16 273q0 191 30 268q55 142 217 177q70 15 244 15q156 0 220 -14q116 -26 180 -113l139 97v-156l-90 -62q14 -86 14 -215q0 -296 -77 -397q-88 -116 -390 -116q-150 0 -225 16q-125 27 -192 108zM406 295q30 -73 147 -73q95 0 131 46
q31 39 32 138q1 69 2 105zM703 656q-20 50 -59 66q-27 12 -91 12q-85 0 -114 -24q-50 -42 -50 -213v-58z" />
    <glyph glyph-name="ugrave" unicode="&#xf9;" horiz-adv-x="1115" 
d="M1012 956v-956h-311l16 197h-6q-63 -207 -296 -207q-209 0 -284 138q-34 63 -34 181v647h311v-546q0 -102 12 -124q28 -53 117 -53q107 0 147 74q17 31 17 149v500h311zM336 1382l371 -219l-51 -106l-412 144z" />
    <glyph glyph-name="uacute" unicode="&#xfa;" horiz-adv-x="1115" 
d="M1012 956v-956h-311l16 197h-6q-63 -207 -296 -207q-209 0 -284 138q-34 63 -34 181v647h311v-546q0 -102 12 -124q28 -53 117 -53q107 0 147 74q17 31 17 149v500h311zM793 1382l92 -181l-412 -144l-51 106z" />
    <glyph glyph-name="ucircumflex" unicode="&#xfb;" horiz-adv-x="1115" 
d="M1012 956v-956h-311l16 197h-6q-63 -207 -296 -207q-209 0 -284 138q-34 63 -34 181v647h311v-546q0 -102 12 -124q28 -53 117 -53q107 0 147 74q17 31 17 149v500h311zM554 1362l334 -199l-46 -103l-288 103l-277 -103l-49 103z" />
    <glyph glyph-name="udieresis" unicode="&#xfc;" horiz-adv-x="1115" 
d="M1012 956v-956h-311l16 197h-6q-63 -207 -296 -207q-209 0 -284 138q-34 63 -34 181v647h311v-546q0 -102 12 -124q28 -53 117 -53q107 0 147 74q17 31 17 149v500h311zM466 1288v-189h-198v189h198zM848 1288v-189h-198v189h198z" />
    <glyph glyph-name="yacute" unicode="&#xfd;" horiz-adv-x="970" 
d="M982 956l-234 -1020q-31 -136 -66 -199q-53 -98 -153 -133q-77 -26 -209 -26q-5 0 -32 1t-49 1h-16v214q29 -1 49 -1q108 0 143 83q23 54 28 124h-172l-283 956h327l188 -777h6q32 177 75 389l79 388h319zM748 1382l92 -181l-412 -144l-51 106z" />
    <glyph glyph-name="thorn" unicode="&#xfe;" horiz-adv-x="1137" 
d="M104 1365h311v-568h5q52 98 96 128q61 41 200 41q172 0 256 -74q69 -61 91 -182q12 -69 12 -209q0 -153 -12 -226q-21 -132 -87 -203q-76 -82 -270 -82q-115 0 -174 32q-70 38 -101 139h-5v-571h-322v1775zM596 734q-114 1 -147 -62q-23 -42 -23 -171q0 -178 34 -225
t136 -47q113 0 145 68q21 42 21 173q0 147 -16 187q-31 76 -150 77z" />
    <glyph glyph-name="ydieresis" unicode="&#xff;" horiz-adv-x="970" 
d="M982 956l-234 -1020q-31 -136 -66 -199q-53 -98 -153 -133q-77 -26 -209 -26q-5 0 -32 1t-49 1h-16v214q29 -1 49 -1q108 0 143 83q23 54 28 124h-172l-283 956h327l188 -777h6q32 177 75 389l79 388h319zM393 1288v-189h-198v189h198zM775 1288v-189h-198v189h198z" />
    <glyph glyph-name="OE" unicode="&#x152;" horiz-adv-x="2017" 
d="M1316 1065v-246h572v-253h-572v-266h625v-300h-970l13 152h-13q-61 -100 -147 -135q-68 -27 -202 -27q-258 0 -376 72q-102 62 -144 172q-32 83 -37 227q-2 53 -2 325q0 157 11 230q54 359 519 359q144 0 222 -27q115 -39 156 -146h13l-13 163h957v-300h-612zM672 1068
q-96 0 -136 -14q-86 -30 -94 -137q-3 -41 -3 -206v-173q0 -164 56 -207q44 -34 223 -34q141 0 185 42q56 53 57 208l1 268q0 157 -56 209q-47 44 -233 44z" />
    <glyph glyph-name="oe" unicode="&#x153;" horiz-adv-x="1673" 
d="M1610 429h-609q1 -30 1 -39q0 -106 25 -138q33 -42 131 -42q104 0 130 34q12 16 18 75h304q0 -88 -14 -137q-33 -117 -163 -164q-77 -28 -274 -28q-119 0 -180 21q-95 31 -124 120h-6q-53 -91 -121 -119q-53 -22 -172 -22q-204 0 -295 33q-146 53 -181 209
q-17 76 -17 275q0 204 38 286q80 173 383 173q206 0 292 -47q42 -23 76 -88h3q34 68 81 94q76 41 247 41q164 0 261 -46q149 -71 163 -314q2 -35 3 -177zM1315 597q0 93 -29 122.5t-121 29.5q-120 0 -150 -56q-11 -21 -16 -96h316zM545 734q-113 0 -145 -47
q-24 -37 -24 -159q0 -218 27 -260q30 -46 131 -46q103 0 138 41q32 37 31 143l-1 82v100q0 87 -35 118q-33 28 -122 28z" />
    <glyph glyph-name="Scedilla" unicode="&#x15e;" horiz-adv-x="1304" 
d="M671 -82l117 -155l-269 -175l-85 107zM1197 939h-348q0 66 -10 92q-15 43 -65 56q-39 9 -117 9q-117 0 -154 -14q-69 -26 -69 -120q0 -77 39 -100q29 -17 144 -25q107 -6 213 -13q125 -10 210 -37q121 -38 165 -136q33 -72 33 -219q0 -166 -32 -245q-58 -143 -261 -181
q-85 -16 -269 -16q-282 0 -398 35q-184 56 -206 278q-5 51 -5 139h348v-27q0 -93 52 -119q38 -19 204 -19q85 0 97 1q54 7 84 40q26 29 26 97q0 79 -49 105q-29 15 -124 21q-314 19 -406 41q-139 34 -191 141q-40 82 -40 245q0 242 114 323q81 57 227 75q76 9 242 9
q331 0 432 -76q116 -87 116 -297q0 -18 -2 -63z" />
    <glyph glyph-name="Scaron" unicode="&#x160;" horiz-adv-x="1304" 
d="M648 1461l-326 198l49 104l277 -104l288 104l46 -104zM1197 939h-348q0 66 -10 92q-15 43 -65 56q-39 9 -117 9q-117 0 -154 -14q-69 -26 -69 -120q0 -77 39 -100q29 -17 144 -25q107 -6 213 -13q125 -10 210 -37q121 -38 165 -136q33 -72 33 -219q0 -166 -32 -245
q-58 -143 -261 -181q-85 -16 -269 -16q-282 0 -398 35q-184 56 -206 278q-5 51 -5 139h348v-27q0 -93 52 -119q38 -19 204 -19q85 0 97 1q54 7 84 40q26 29 26 97q0 79 -49 105q-29 15 -124 21q-314 19 -406 41q-139 34 -191 141q-40 82 -40 245q0 242 114 323q81 57 227 75
q76 9 242 9q331 0 432 -76q116 -87 116 -297q0 -18 -2 -63z" />
    <glyph glyph-name="scaron" unicode="&#x161;" horiz-adv-x="1052" 
d="M522 1060l-326 198l49 104l277 -104l288 104l46 -104zM951 683h-296l-3 14q-11 50 -55 62q-20 6 -91 6q-87 0 -111 -14q-30 -17 -30 -66q0 -61 49 -73q17 -4 190 -13q116 -6 154 -11q94 -14 145 -49q90 -62 90 -222q0 -165 -97 -243q-104 -84 -388 -84q-340 0 -411 126
q-35 60 -37 183h318v-18q0 -63 48 -79q23 -8 104 -8t106 7q56 17 56 76q0 62 -39 81q-25 12 -97 13q-182 2 -245 12q-157 25 -208 111q-38 63 -38 176q0 180 102 241q92 55 359 55q142 0 212 -13q132 -25 178 -102q34 -57 35 -168z" />
    <glyph glyph-name="Ydieresis" unicode="&#x178;" horiz-adv-x="1342" 
d="M1345 1365l-498 -891v-474h-367v474l-483 891h417l124 -263q73 -154 121 -262h12l61 131l191 394h422zM586 1711v-202h-205v202h205zM961 1711v-202h-205v202h205z" />
    <glyph glyph-name="Zcaron" unicode="&#x17d;" horiz-adv-x="1200" 
d="M630 1461l-326 198l49 104l277 -104l288 104l46 -104zM1157 1365v-306l-652 -752h652v-307h-1115v308l643 750h-602v307h1074z" />
    <glyph glyph-name="zcaron" unicode="&#x17e;" horiz-adv-x="902" 
d="M475 1060l-326 198l49 104l277 -104l288 104l46 -104zM74 956h791v-248l-462 -485h462v-223h-825v259l451 476h-417v221z" />
    <glyph glyph-name="florin" unicode="&#x192;" 
d="M846 800l-129 -731q-21 -117 -34 -161q-30 -101 -82 -137q-86 -59 -409 -59q-23 0 -66 1l41 232q57 -8 88 -8q67 0 98 39q24 30 37 104l127 720h-137l39 224h138l24 136q36 206 102 273q83 84 401 84q20 0 74 -1l-41 -232q-40 8 -73 8q-72 0 -101 -36q-22 -28 -36 -107
l-22 -125h186l-40 -224h-185z" />
    <glyph glyph-name="circumflex" unicode="&#x2c6;" horiz-adv-x="1024" 
d="M508 1362l334 -199l-46 -103l-288 103l-277 -103l-49 103z" />
    <glyph glyph-name="tilde" unicode="&#x2dc;" horiz-adv-x="1024" 
d="M742 1340l150 -62q-26 -64 -55 -105q-66 -94 -178 -94q-67 0 -151 47q-90 50 -122 50q-64 0 -104 -90l-150 66q50 95 91 136q62 59 147 59q55 0 121 -33q56 -29 113 -58q17 -8 41 -8q59 0 97 92z" />
    <glyph glyph-name="mu" unicode="&#xb5;" horiz-adv-x="1024" 
d="M55 -350v1333h286v-506q0 -120 29 -170q50 -87 143 -87q170 0 170 263v500h286v-983h-286v127q-55 -146 -175 -146q-105 0 -167 118v-449h-286z" />
    <glyph glyph-name="mu" unicode="&#x3bc;" horiz-adv-x="1024" 
d="M55 -350v1333h286v-506q0 -120 29 -170q50 -87 143 -87q170 0 170 263v500h286v-983h-286v127q-55 -146 -175 -146q-105 0 -167 118v-449h-286z" />
    <glyph glyph-name="endash" unicode="&#x2013;" 
d="M199 654h913v-309h-913v309z" />
    <glyph glyph-name="emdash" unicode="&#x2014;" horiz-adv-x="1468" 
d="M0 654h1468v-309h-1468v309z" />
    <glyph glyph-name="quoteleft" unicode="&#x2018;" horiz-adv-x="480" 
d="M81 826v278q0 138 29 192q52 97 240 97q11 0 45 -2v-137h-17q-75 0 -101 -36q-11 -15 -13 -85h112v-307h-295z" />
    <glyph glyph-name="quoteright" unicode="&#x2019;" horiz-adv-x="504" 
d="M388 1365v-278q0 -137 -29 -191q-52 -97 -240 -97q-13 0 -44 1v138q104 -2 122 43q7 17 8 77h-112v307h295z" />
    <glyph glyph-name="quotesinglbase" unicode="&#x201a;" horiz-adv-x="504" 
d="M388 307v-278q0 -138 -29 -192q-52 -97 -240 -97q-14 0 -44 1v138q105 0 122 42q7 18 8 79h-112v307h295z" />
    <glyph glyph-name="quotedblleft" unicode="&#x201c;" horiz-adv-x="890" 
d="M491 826v278q0 138 29 192q52 97 240 97q11 0 44 -2v-137h-16q-75 0 -101 -36q-11 -15 -13 -85h112v-307h-295zM81 826v278q0 138 29 192q52 97 240 97q11 0 45 -2v-137h-17q-75 0 -101 -36q-11 -15 -13 -85h112v-307h-295z" />
    <glyph glyph-name="quotedblright" unicode="&#x201d;" horiz-adv-x="890" 
d="M399 1365v-278q0 -137 -29 -191q-52 -97 -240 -97q-13 0 -44 1v138q104 -2 122 43q7 17 8 77h-112v307h295zM809 1365v-278q0 -137 -29 -191q-52 -97 -240 -97q-13 0 -44 1v138q105 -2 122 42q6 17 8 78h-112v307h295z" />
    <glyph glyph-name="quotedblbase" unicode="&#x201e;" horiz-adv-x="890" 
d="M399 307v-278q0 -138 -29 -192q-52 -97 -240 -97q-14 0 -44 1v138q105 0 122 42q7 18 8 79h-112v307h295zM809 307v-278q0 -138 -29 -192q-52 -97 -240 -97q-14 0 -44 1v138q106 0 122 42q6 18 8 79h-112v307h295z" />
    <glyph glyph-name="dagger" unicode="&#x2020;" 
d="M815 1365v-396h355v-232h-355v-1147h-319v1147h-355v232h355v396h319z" />
    <glyph glyph-name="daggerdbl" unicode="&#x2021;" 
d="M815 1365v-396h355v-232h-355v-519h355v-232h-355v-396h-319v396h-355v232h355v519h-355v232h355v396h319z" />
    <glyph glyph-name="bullet" unicode="&#x2022;" horiz-adv-x="1365" 
d="M689 978q116 0 198 -84t82 -200q0 -119 -82.5 -201.5t-201.5 -82.5q-118 0 -201 83t-83 201q0 121 83.5 202.5t204.5 81.5z" />
    <glyph glyph-name="ellipsis" unicode="&#x2026;" horiz-adv-x="1376" 
d="M377 313v-313h-295v313h295zM836 313v-313h-295v313h295zM1294 313v-313h-295v313h295z" />
    <glyph glyph-name="perthousand" unicode="&#x2030;" horiz-adv-x="2355" 
d="M368 1367q82 0 115 -7q60 -12 97 -54q39 -45 49 -108q6 -33 6 -121q0 -155 -1 -165q-7 -98 -46 -156q-51 -76 -244 -76q-126 0 -174 24q-85 42 -103 151q-5 30 -5 214q0 93 4 123q10 68 48 110q44 49 117 60q30 5 137 5zM351 1215q-77 1 -93 -23t-16 -117v-39l1 -72
q0 -11 -1 -33q-3 -64 22 -83q20 -15 89 -15q76 0 90 31q11 24 13 174q2 116 -9 146q-15 30 -96 31zM1311 1365l-806 -1365h-164l806 1365h164zM1324 685q82 0 115 -7q60 -12 97 -54q39 -45 49 -108q6 -33 6 -121q0 -155 -1 -165q-7 -98 -46 -156q-51 -76 -245 -76
q-126 0 -174 24q-84 42 -103 151q-5 29 -5 214q0 174 52 233q43 49 118 60q29 5 137 5zM1306 533q-77 1 -93 -22.5t-16 -117.5q0 13 1 -111v-33q-1 -65 22 -83q20 -15 89 -15q76 0 90 31q10 23 13 174q2 116 -9 146q-15 30 -97 31zM2026 685q82 0 115 -7q60 -12 97 -54
q39 -45 49 -108q6 -33 6 -121q0 -155 -1 -165q-7 -98 -46 -156q-51 -76 -244 -76q-126 0 -174 24q-85 42 -103 151q-5 30 -5 214q0 93 4 123q10 68 48 110q44 49 117 60q30 5 137 5zM2009 533q-77 1 -93 -23t-16 -117q0 13 1 -111v-33q-1 -65 22 -83q19 -15 88 -15
q76 0 90 31q11 24 13 174q2 114 -9 146q-15 30 -96 31z" />
    <glyph glyph-name="guilsinglleft" unicode="&#x2039;" horiz-adv-x="602" 
d="M314 943l205 -111l-174 -330l174 -309l-194 -121l-244 430z" />
    <glyph glyph-name="guilsinglright" unicode="&#x203a;" horiz-adv-x="601" 
d="M288 943l233 -441l-244 -430l-194 121l174 309l-174 330z" />
    <glyph glyph-name="trademark" unicode="&#x2122;" horiz-adv-x="1753" 
d="M429 1175v-588h-227v588h-200v190h641v-190h-214zM1696 1365v-778h-223v236q0 201 20 353q-32 -107 -114 -347l-83 -242h-192l-85 243q-78 223 -110 328l4 -67q12 -201 12 -268v-236h-223v778h343l76 -224q51 -151 78 -260q24 109 73 259l73 225h351z" />
    <glyph glyph-name="notequal" unicode="&#x2260;" horiz-adv-x="1024" 
d="M523 995l143 268l210 -115l-86 -153h166v-283h-280l-82 -148h361v-283h-464l-124 -228l-209 115l65 113h-155v283h258l83 148h-340v283h454z" />
    <glyph glyph-name="lessequal" unicode="&#x2264;" horiz-adv-x="1024" 
d="M955 1341v-316l-518 -157l518 -155v-316l-887 331v283zM955 343v-297h-887v297h887z" />
    <glyph glyph-name="glyph254" horiz-adv-x="512" 
 />
    <glyph glyph-name="nonbreakingspace" unicode="&#xa0;" horiz-adv-x="512" 
 />
    <glyph glyph-name="sfthyphen" unicode="&#xad;" horiz-adv-x="489" 
d="M0 715h489v-309h-489v309z" />
    <glyph glyph-name="glyph361" horiz-adv-x="1024" 
d="M749 1743l154 -62q-26 -66 -54 -105q-67 -94 -177 -94q-72 0 -160 47q-95 51 -129 51q-67 0 -107 -91l-156 66q56 109 106 147q64 49 136 49q57 0 147 -46q105 -54 145 -54q57 0 95 92z" />
  </font>
</defs>
</svg>
