<svg xmlns="http://www.w3.org/2000/svg" xmlns:xlink="http://www.w3.org/1999/xlink">

<symbol id="dribbble" fill-rule="evenodd" clip-rule="evenodd" stroke-linejoin="round" stroke-miterlimit="1.414"><path d="M8 16c-4.41 0-8-3.59-8-8s3.59-8 8-8 8 3.59 8 8-3.59 8-8 8zm6.747-6.905c-.234-.074-2.115-.635-4.257-.292.894 2.456 1.258 4.456 1.328 4.872 1.533-1.037 2.624-2.68 2.93-4.58zM10.67 14.3c-.102-.6-.5-2.688-1.46-5.18l-.044.014C5.312 10.477 3.93 13.15 3.806 13.4c1.158.905 2.614 1.444 4.194 1.444.947 0 1.85-.194 2.67-.543zm-7.747-1.72c.155-.266 2.03-3.37 5.555-4.51.09-.03.18-.056.27-.08-.173-.39-.36-.778-.555-1.16-3.413 1.02-6.723.977-7.023.97l-.003.208c0 1.755.665 3.358 1.756 4.57zM1.31 6.61c.307.005 3.122.017 6.318-.832-1.132-2.012-2.353-3.705-2.533-3.952-1.912.902-3.34 2.664-3.784 4.785zM6.4 1.368c.188.253 1.43 1.943 2.548 4 2.43-.91 3.46-2.293 3.582-2.468C11.323 1.827 9.736 1.176 8 1.176c-.55 0-1.087.066-1.6.19zm6.89 2.322c-.145.194-1.29 1.662-3.816 2.694.16.325.31.656.453.99.05.117.1.235.147.352 2.274-.286 4.533.172 4.758.22-.015-1.613-.59-3.094-1.543-4.257z"/></symbol>

<symbol id="facebook" fill-rule="evenodd" clip-rule="evenodd" stroke-linejoin="round" stroke-miterlimit="1.414"><path d="M15.117 0H.883C.395 0 0 .395 0 .883v14.234c0 .488.395.883.883.883h7.663V9.804H6.46V7.39h2.086V5.607c0-2.066 1.262-3.19 3.106-3.19.883 0 1.642.064 1.863.094v2.16h-1.28c-1 0-1.195.48-1.195 1.18v1.54h2.39l-.31 2.42h-2.08V16h4.077c.488 0 .883-.395.883-.883V.883C16 .395 15.605 0 15.117 0" fill-rule="nonzero"/></symbol>

<symbol id="flickr" fill-rule="evenodd" clip-rule="evenodd" stroke-linejoin="round" stroke-miterlimit="1.414"><path d="M0 8c0 2.05 1.662 3.71 3.71 3.71 2.05 0 3.713-1.66 3.713-3.71S5.76 4.29 3.71 4.29C1.663 4.29 0 5.95 0 8zm8.577 0c0 2.05 1.662 3.71 3.712 3.71C14.33 11.71 16 10.05 16 8s-1.662-3.71-3.71-3.71c-2.05 0-3.713 1.66-3.713 3.71z"/></symbol>

<symbol id="github" fill-rule="evenodd" clip-rule="evenodd" stroke-linejoin="round" stroke-miterlimit="1.414"><path d="M8 0C3.58 0 0 3.582 0 8c0 3.535 2.292 6.533 5.47 7.59.4.075.547-.172.547-.385 0-.19-.007-.693-.01-1.36-2.226.483-2.695-1.073-2.695-1.073-.364-.924-.89-1.17-.89-1.17-.725-.496.056-.486.056-.486.803.056 1.225.824 1.225.824.714 1.223 1.873.87 2.33.665.072-.517.278-.87.507-1.07-1.777-.2-3.644-.888-3.644-3.953 0-.873.31-1.587.823-2.147-.09-.202-.36-1.015.07-2.117 0 0 .67-.215 2.2.82.64-.178 1.32-.266 2-.27.68.004 1.36.092 2 .27 1.52-1.035 2.19-.82 2.19-.82.43 1.102.16 1.915.08 2.117.51.56.82 1.274.82 2.147 0 3.073-1.87 3.75-3.65 3.947.28.24.54.73.54 1.48 0 1.07-.01 1.93-.01 2.19 0 .21.14.46.55.38C13.71 14.53 16 11.53 16 8c0-4.418-3.582-8-8-8"/></symbol>

<symbol id="googleplus" fill-rule="evenodd" clip-rule="evenodd" stroke-linejoin="round" stroke-miterlimit="1.414"><path d="M5.09 7.273v1.745h2.89c-.116.75-.873 2.197-2.887 2.197-1.737 0-3.155-1.44-3.155-3.215S3.353 4.785 5.09 4.785c.99 0 1.652.422 2.03.786l1.382-1.33c-.887-.83-2.037-1.33-3.41-1.33C2.275 2.91 0 5.19 0 8s2.276 5.09 5.09 5.09c2.94 0 4.888-2.065 4.888-4.974 0-.334-.036-.59-.08-.843H5.09zm10.91 0h-1.455V5.818H13.09v1.455h-1.454v1.454h1.455v1.455h1.46V8.727H16"/></symbol>

<symbol id="instagram" fill-rule="evenodd" clip-rule="evenodd" stroke-linejoin="round" stroke-miterlimit="1.414"><path d="M8 0C5.827 0 5.555.01 4.702.048 3.85.088 3.27.222 2.76.42c-.526.204-.973.478-1.417.923-.445.444-.72.89-.923 1.417-.198.51-.333 1.09-.372 1.942C.008 5.555 0 5.827 0 8s.01 2.445.048 3.298c.04.852.174 1.433.372 1.942.204.526.478.973.923 1.417.444.445.89.72 1.417.923.51.198 1.09.333 1.942.372.853.04 1.125.048 3.298.048s2.445-.01 3.298-.048c.852-.04 1.433-.174 1.942-.372.526-.204.973-.478 1.417-.923.445-.444.72-.89.923-1.417.198-.51.333-1.09.372-1.942.04-.853.048-1.125.048-3.298s-.01-2.445-.048-3.298c-.04-.852-.174-1.433-.372-1.942-.204-.526-.478-.973-.923-1.417-.444-.445-.89-.72-1.417-.923-.51-.198-1.09-.333-1.942-.372C10.445.008 10.173 0 8 0zm0 1.44c2.136 0 2.39.01 3.233.048.78.036 1.203.166 1.485.276.374.145.64.318.92.598.28.28.453.546.598.92.11.282.24.705.276 1.485.038.844.047 1.097.047 3.233s-.01 2.39-.05 3.233c-.04.78-.17 1.203-.28 1.485-.15.374-.32.64-.6.92-.28.28-.55.453-.92.598-.28.11-.71.24-1.49.276-.85.038-1.1.047-3.24.047s-2.39-.01-3.24-.05c-.78-.04-1.21-.17-1.49-.28-.38-.15-.64-.32-.92-.6-.28-.28-.46-.55-.6-.92-.11-.28-.24-.71-.28-1.49-.03-.84-.04-1.1-.04-3.23s.01-2.39.04-3.24c.04-.78.17-1.21.28-1.49.14-.38.32-.64.6-.92.28-.28.54-.46.92-.6.28-.11.7-.24 1.48-.28.85-.03 1.1-.04 3.24-.04zm0 2.452c-2.27 0-4.108 1.84-4.108 4.108 0 2.27 1.84 4.108 4.108 4.108 2.27 0 4.108-1.84 4.108-4.108 0-2.27-1.84-4.108-4.108-4.108zm0 6.775c-1.473 0-2.667-1.194-2.667-2.667 0-1.473 1.194-2.667 2.667-2.667 1.473 0 2.667 1.194 2.667 2.667 0 1.473-1.194 2.667-2.667 2.667zm5.23-6.937c0 .53-.43.96-.96.96s-.96-.43-.96-.96.43-.96.96-.96.96.43.96.96z"/></symbol>

<symbol id="linkedin" fill-rule="evenodd" clip-rule="evenodd" stroke-linejoin="round" stroke-miterlimit="1.414"><path d="M13.632 13.635h-2.37V9.922c0-.886-.018-2.025-1.234-2.025-1.235 0-1.424.964-1.424 1.96v3.778h-2.37V6H8.51v1.04h.03c.318-.6 1.092-1.233 2.247-1.233 2.4 0 2.845 1.58 2.845 3.637v4.188zM3.558 4.955c-.762 0-1.376-.617-1.376-1.377 0-.758.614-1.375 1.376-1.375.76 0 1.376.617 1.376 1.375 0 .76-.617 1.377-1.376 1.377zm1.188 8.68H2.37V6h2.376v7.635zM14.816 0H1.18C.528 0 0 .516 0 1.153v13.694C0 15.484.528 16 1.18 16h13.635c.652 0 1.185-.516 1.185-1.153V1.153C16 .516 15.467 0 14.815 0z" fill-rule="nonzero"/></symbol>

<symbol id="pinterest" fill-rule="evenodd" clip-rule="evenodd" stroke-linejoin="round" stroke-miterlimit="1.414"><path d="M8 0C3.582 0 0 3.582 0 8c0 3.39 2.108 6.285 5.084 7.45-.07-.633-.133-1.604.028-2.295.146-.625.938-3.977.938-3.977s-.24-.48-.24-1.188c0-1.11.646-1.943 1.448-1.943.683 0 1.012.513 1.012 1.127 0 .687-.436 1.713-.662 2.664-.19.797.4 1.445 1.185 1.445 1.42 0 2.514-1.498 2.514-3.662 0-1.91-1.376-3.25-3.342-3.25-2.276 0-3.61 1.71-3.61 3.47 0 .69.263 1.43.593 1.83.066.08.075.15.057.23-.06.25-.196.8-.223.91-.035.15-.115.18-.268.11C3.516 10.46 2.89 9 2.89 7.82c0-2.52 1.834-4.84 5.287-4.84 2.774 0 4.932 1.98 4.932 4.62 0 2.76-1.74 4.98-4.16 4.98-.81 0-1.57-.42-1.84-.92l-.5 1.9c-.18.698-.67 1.57-1 2.1.75.23 1.54.357 2.37.357 4.41 0 8-3.58 8-8s-3.59-8-8-8z" fill-rule="nonzero"/></symbol>

<symbol id="rss" fill-rule="evenodd" clip-rule="evenodd" stroke-linejoin="round" stroke-miterlimit="1.414"><path d="M12.8 16C12.8 8.978 7.022 3.2 0 3.2V0c8.777 0 16 7.223 16 16h-3.2zM2.194 11.61c1.21 0 2.195.985 2.195 2.196 0 1.21-.99 2.194-2.2 2.194C.98 16 0 15.017 0 13.806c0-1.21.983-2.195 2.194-2.195zM10.606 16h-3.11c0-4.113-3.383-7.497-7.496-7.497v-3.11c5.818 0 10.606 4.79 10.606 10.607z"/></symbol>

<symbol id="stackoverflow" class="svg-icon" xmlns="http://www.w3.org/2000/svg" fill-rule="evenodd" clip-rule="evenodd" stroke-linejoin="round" stroke-miterlimit="1.414"><path d="M12.658 14.577v-4.27h1.423V16H1.23v-5.693h1.42v4.27h10.006zm-8.583-1.423h7.16V11.73h-7.16v1.424zm.173-3.235l6.987 1.46.3-1.38L4.55 8.54l-.302 1.38zm.906-3.37l6.47 3.02.602-1.3-6.47-3.02-.602 1.29zm1.81-3.19l5.478 4.57.906-1.08L7.87 2.28l-.9 1.078zM10.502 0L9.338.863l4.27 5.735 1.164-.862L10.5 0z"/></symbol>

<symbol id="twitter" fill-rule="evenodd" clip-rule="evenodd" stroke-linejoin="round" stroke-miterlimit="1.414"><path d="M16 3.038c-.59.26-1.22.437-1.885.517.677-.407 1.198-1.05 1.443-1.816-.634.37-1.337.64-2.085.79-.598-.64-1.45-1.04-2.396-1.04-1.812 0-3.282 1.47-3.282 3.28 0 .26.03.51.085.75-2.728-.13-5.147-1.44-6.766-3.42C.83 2.58.67 3.14.67 3.75c0 1.14.58 2.143 1.46 2.732-.538-.017-1.045-.165-1.487-.41v.04c0 1.59 1.13 2.918 2.633 3.22-.276.074-.566.114-.865.114-.21 0-.41-.02-.61-.058.42 1.304 1.63 2.253 3.07 2.28-1.12.88-2.54 1.404-4.07 1.404-.26 0-.52-.015-.78-.045 1.46.93 3.18 1.474 5.04 1.474 6.04 0 9.34-5 9.34-9.33 0-.14 0-.28-.01-.42.64-.46 1.2-1.04 1.64-1.7z" fill-rule="nonzero"/></symbol>

<symbol id="youtube" fill-rule="evenodd" clip-rule="evenodd" stroke-linejoin="round" stroke-miterlimit="1.414"><path d="M0 7.345c0-1.294.16-2.59.16-2.59s.156-1.1.636-1.587c.608-.637 1.408-.617 1.764-.684C3.84 2.36 8 2.324 8 2.324s3.362.004 5.6.166c.314.038.996.04 1.604.678.48.486.636 1.588.636 1.588S16 6.05 16 7.346v1.258c0 1.296-.16 2.59-.16 2.59s-.156 1.102-.636 1.588c-.608.638-1.29.64-1.604.678-2.238.162-5.6.166-5.6.166s-4.16-.037-5.44-.16c-.356-.067-1.156-.047-1.764-.684-.48-.487-.636-1.587-.636-1.587S0 9.9 0 8.605v-1.26zm6.348 2.73V5.58l4.323 2.255-4.32 2.24z"/></symbol>

<symbol id="mastodon" fill-rule="evenodd" clip-rule="evenodd" stroke-linejoin="round" stroke-miterlimit="1.414">
  <path transform="scale(0.07)" d="M211.80734 139.0875c-3.18125 16.36625-28.4925 34.2775-57.5625 37.74875-15.15875 1.80875-30.08375 3.47125-45.99875 2.74125-26.0275-1.1925-46.565-6.2125-46.565-6.2125 0 2.53375.15625 4.94625.46875 7.2025 3.38375 25.68625 25.47 27.225 46.39125 27.9425 21.11625.7225 39.91875-5.20625 39.91875-5.20625l.8675 19.09s-14.77 7.93125-41.08125 9.39c-14.50875.7975-32.52375-.365-53.50625-5.91875C9.23234 213.82 1.40609 165.31125.20859 116.09125c-.365-14.61375-.14-28.39375-.14-39.91875 0-50.33 32.97625-65.0825 32.97625-65.0825C49.67234 3.45375 78.20359.2425 107.86484 0h.72875c29.66125.2425 58.21125 3.45375 74.8375 11.09 0 0 32.975 14.7525 32.975 65.0825 0 0 .41375 37.13375-4.59875 62.915"/>
  <path transform="scale(0.07)" fill="#FFF" d="M177.50984 80.077v60.94125h-24.14375v-59.15c0-12.46875-5.24625-18.7975-15.74-18.7975-11.6025 0-17.4175 7.5075-17.4175 22.3525v32.37625H96.20734V85.42325c0-14.845-5.81625-22.3525-17.41875-22.3525-10.49375 0-15.74 6.32875-15.74 18.7975v59.15H38.90484V80.077c0-12.455 3.17125-22.3525 9.54125-29.675 6.56875-7.3225 15.17125-11.07625 25.85-11.07625 12.355 0 21.71125 4.74875 27.8975 14.2475l6.01375 10.08125 6.015-10.08125c6.185-9.49875 15.54125-14.2475 27.8975-14.2475 10.6775 0 19.28 3.75375 25.85 11.07625 6.36875 7.3225 9.54 17.22 9.54 29.675"/>
</symbol>

<symbol id="discord" xmlns="http://www.w3.org/2000/svg" viewBox="0 -150 1024 1024" fill-rule="evenodd" clip-rule="evenodd" stroke-linejoin="round">
  <path d="M 361.9857,0.00138389 C 348.73055,0.05478389 239.07459,3.1670339 123.39327,89.124664 123.39327,89.124664 0,311.06297 0,584.4136 c 0,0 71.978249,123.39208 261.35281,129.39038 0,0 31.70511,-37.7037 57.41206,-70.26582 C 209.93876,610.97599 168.80785,543.28361 168.80785,543.28361 c 0,0 8.5708,5.99726 23.99498,14.56626 0.85689,0 1.71122,0.85558 3.42502,1.7125 2.57069,1.71377 5.1422,2.57081 7.7129,4.28459 21.42246,11.99658 42.84423,21.42368 62.5529,29.13581 35.13283,14.56729 77.12215,27.41951 125.96536,36.84541 64.26736,11.9966 139.67306,16.28044 221.93532,0.85625 40.27424,-7.71208 81.40794,-18.85053 124.25286,-36.84541 29.99142,-11.13969 63.40925,-27.41914 98.54205,-50.55541 0,0 -42.84417,69.40888 -155.09786,101.11413 25.70697,31.70521 56.55581,68.54998 56.55581,68.54998 C 928.02173,706.94949 1000,583.55668 1000,584.4136 1000,311.06297 876.60671,89.124664 876.60671,89.124664 754.07028,-2.5634661 636.67349,0.00803389 636.67349,0.00803389 L 624.67932,13.718014 C 770.35209,57.419834 838.04548,121.6888 838.04548,121.6888 748.92802,73.702484 661.52634,49.707644 580.121,40.281764 c -61.69669,-6.85519 -120.82499,-5.13937 -173.09576,1.71581 -5.14137,0 -9.42484,0.85563 -14.56623,1.7125 -29.99144,3.42762 -102.82721,13.70953 -194.51535,53.98375 -31.70523,13.710366 -50.55871,23.994976 -50.55871,23.994976 0,0 70.26568,-67.697276 224.50739,-111.399106 L 363.32318,0.00803389 c 0,0 -0.4538,-0.0102 -1.33748,-0.007 z M 340.18778,316.20414 c 48.8432,0 88.26098,41.98669 87.40413,94.25746 0,52.27084 -38.56093,94.2608 -87.40413,94.2608 -47.98632,0 -87.40413,-41.98996 -87.40413,-94.2608 0,-52.27077 38.56091,-94.25746 87.40413,-94.25746 z m 312.76778,0 c 47.98631,0 87.40413,41.98669 87.40413,94.25746 0,52.27084 -38.56089,94.2608 -87.40413,94.2608 -47.9863,0 -87.40413,-41.98996 -87.40413,-94.2608 0,-52.27077 38.56091,-94.25746 87.40413,-94.25746 z"
        id="path8"/>
</symbol>
<symbol id="steam" xmlns="http://www.w3.org/2000/svg" viewBox="0 0 240 240" fill-rule="evenodd" clip-rule="evenodd" stroke-linejoin="round">
  <path d="m4.8911 150.01c14.393 48.01 58.916 82.99 111.61 82.99 64.34 0 116.5-52.16 116.5-116.5 0-64.341-52.16-116.5-116.5-116.5-61.741 0-112.26 48.029-116.25 108.76 7.5391 12.66 10.481 20.49 4.6411 41.25z"/>
  <path fill="#fff" d="m110.5 87.322c0 0.196 0 0.392 0.01 0.576l-28.508 41.412c-4.618-0.21-9.252 0.6-13.646 2.41-1.937 0.79-3.752 1.76-5.455 2.88l-62.599-25.77c0.00049 0-1.4485 23.83 4.588 41.59l44.254 18.26c2.222 9.93 9.034 18.64 19.084 22.83 16.443 6.87 35.402-0.96 42.242-17.41 1.78-4.3 2.61-8.81 2.49-13.31l40.79-29.15c0.33 0.01 0.67 0.02 1 0.02 24.41 0 44.25-19.9 44.25-44.338 0-24.44-19.84-44.322-44.25-44.322-24.4 0-44.25 19.882-44.25 44.322zm-6.84 83.918c-5.294 12.71-19.9 18.74-32.596 13.45-5.857-2.44-10.279-6.91-12.83-12.24l14.405 5.97c9.363 3.9 20.105-0.54 23.997-9.9 3.904-9.37-0.525-20.13-9.883-24.03l-14.891-6.17c5.746-2.18 12.278-2.26 18.381 0.28 6.153 2.56 10.927 7.38 13.457 13.54s2.52 12.96-0.04 19.1m51.09-54.38c-16.25 0-29.48-13.25-29.48-29.538 0-16.275 13.23-29.529 29.48-29.529 16.26 0 29.49 13.254 29.49 29.529 0 16.288-13.23 29.538-29.49 29.538m-22.09-29.583c0-12.253 9.92-22.191 22.14-22.191 12.23 0 22.15 9.938 22.15 22.191 0 12.254-9.92 22.183-22.15 22.183-12.22 0-22.14-9.929-22.14-22.183z"/>
</symbol>
<symbol id="reddit" xmlns="http://www.w3.org/2000/svg" viewBox="0 0 3593.8 3600" style="enable-background:new 0 0 3593.8 3600;" fill-rule="evenodd" clip-rule="evenodd" stroke-linejoin="round">
  <path class="st0" d="M1756.5,76.2C2742.4,54,3550.3,859,3524.2,1853.5c-23.8,906.6-767.9,1688.3-1748.8,1678.4
				c-934.6-9.4-1703.3-766.5-1708-1728.5C73.1,842.8,837.4,97,1756.5,76.2z M3014.3,1755.6c91.6-67.9,147.2-155.8,136.1-274.5
				c-10.8-116.3-69.7-202.8-176.3-249.9c-115.3-50.9-225.6-36.5-324.5,44.3c-11.3,9.2-18.2,9.6-29.8,2
				c-183.4-120.9-385.4-188.6-603.4-210.7c-24.4-2.5-48.8-5.1-76.8-8c47.3-147.4,93.5-291,140.1-436c11.2,1.8,20.2,2.8,29,4.7
				c111.3,23.9,222.4,48.6,333.9,71.3c23,4.7,34.3,12.7,40.8,36.9C2514.2,850,2628,922.9,2743,904.4
				c158.1-25.5,243.9-195.8,167.3-332.2c-61.2-109-251.7-174.2-374.4-31.5c-12.1,14-22.3,17.3-40.1,13.4
				c-144.5-31.7-289.2-62.1-433.9-93c-60.1-12.9-88.2,3.6-106.7,62.4c-52.2,165.6-104.6,331.2-156.6,496.8
				c-4.5,14.3-8.2,24.8-27.6,24.7c-97.6-0.6-193.8,13.2-289.2,33.3c-171.1,36.2-330.3,100.8-474.9,199.5c-13.2,9-21.3,5.3-33.4-0.2
				c-49.5-22.9-97.9-51.4-150-65.2c-180.4-47.8-394.6,98.8-357.7,339.7c14.5,94.7,70.8,163.2,148.4,215.2
				c12.7,8.5,15.6,16.2,13.3,30.2c-21.8,130.3-8.2,256.7,44.4,378.3c74.8,173,203.4,297.9,359.8,396.5
				c178.4,112.6,376.3,169.6,583.8,195.7c181.5,22.8,362,14.2,540.3-26.1c256.6-57.9,485.1-168,661-369.7
				c139.5-160,201.3-346,172.6-558.2C2985.6,1785.6,2992.4,1771.9,3014.3,1755.6z"/>
  <path class="st1" fill="#fff" d="M3150.5,1481.1c11.1,118.6-44.5,206.6-136.1,274.5c-22,16.3-28.8,30-24.9,58.3
				c28.7,212.2-33.1,398.2-172.6,558.2c-175.9,201.7-404.4,311.8-661,369.7c-178.3,40.2-358.8,48.8-540.3,26.1
				c-207.5-26.1-405.4-83.1-583.8-195.7c-156.3-98.6-285-223.6-359.8-396.5c-52.6-121.6-66.1-248-44.4-378.3
				c2.3-14-0.5-21.7-13.3-30.2c-77.6-52-133.9-120.5-148.4-215.2c-36.9-240.9,177.3-387.5,357.7-339.7
				c52.2,13.8,100.5,42.3,150,65.2c12.1,5.6,20.2,9.2,33.4,0.2c144.7-98.7,303.8-163.3,474.9-199.5c95.4-20.2,191.6-34,289.2-33.3
				c19.3,0.1,23.1-10.3,27.6-24.7c52-165.7,104.4-331.2,156.6-496.8c18.5-58.8,46.6-75.3,106.7-62.4c144.7,30.9,289.4,61.3,433.9,93
				c17.9,3.9,28.1,0.6,40.1-13.4c122.7-142.7,313.1-77.5,374.4,31.5c76.6,136.4-9.2,306.7-167.3,332.2
				c-115,18.5-228.9-54.4-259.5-168.8c-6.5-24.2-17.9-32.2-40.8-36.9c-111.6-22.7-222.7-47.4-333.9-71.3c-8.8-1.9-17.8-2.9-29-4.7
				c-46.6,145-92.7,288.6-140.1,436c28,2.9,52.4,5.5,76.8,8c217.9,22.1,420,89.8,603.4,210.7c11.6,7.6,18.5,7.2,29.8-2
				c98.9-80.8,209.2-95.1,324.5-44.3C3080.8,1278.3,3139.6,1364.8,3150.5,1481.1z M2221.8,1946c96.7-0.1,182.7-85.8,182.3-181.6
				c-0.4-102-83.1-185.4-183.3-185.1c-97.3,0.3-182.1,83.5-182,178.4C2038.9,1861.5,2121.2,1946.1,2221.8,1946z M2265,2293.4
				c21-24.3,15.6-53.2-3.7-72.3c-26.8-26.6-61.4-34-88.3-18.6c-10.8,6.2-20.7,13.9-31.3,20.4c-185.3,112.6-378.9,130.1-579.5,46.7
				c-41.1-17.1-78.9-42.5-117.6-65c-28.8-16.8-65-10.9-92.6,17c-18.2,18.3-20.5,49.8-2.3,75.6c10.3,14.5,24.2,27.6,38.8,37.8
				c125.4,88,266.4,124.7,429.5,126.6c17.7-1.3,46.7-2.9,75.7-5.6c101.4-9.3,198.1-36,285.6-88.6
				C2211.2,2348,2240.4,2321.6,2265,2293.4z M1398.5,1946c90.9-0.2,178-89.4,177.6-182c-0.4-100.4-84.7-184.7-184.5-184.6
				c-98.5,0-182.4,84.6-182.2,183.7C1209.7,1863.3,1295.4,1946.2,1398.5,1946z"/>
  <path class="st0" d="M2404.1,1764.4c0.4,95.8-85.6,181.5-182.3,181.6c-100.6,0.1-182.9-84.5-183-188.3
				c-0.1-95,84.7-178.1,182-178.4C2321,1578.9,2403.6,1662.3,2404.1,1764.4z"/>
  <path class="st0" d="M2261.3,2221.1c19.3,19.1,24.7,48,3.7,72.3c-24.6,28.3-53.8,54.7-85.8,73.9
				c-87.5,52.6-184.2,79.3-285.6,88.6c-29,2.7-57.9,4.3-75.7,5.6c-163.1-1.8-304.1-38.6-429.5-126.6c-14.7-10.3-28.5-23.3-38.8-37.8
				c-18.2-25.8-15.9-57.4,2.3-75.6c27.7-27.9,63.8-33.7,92.6-17c38.7,22.6,76.5,47.9,117.6,65c200.6,83.5,394.2,65.9,579.5-46.7
				c10.6-6.4,20.6-14.1,31.3-20.4C2199.9,2187,2234.5,2194.5,2261.3,2221.1z"/>
  <path class="st0" d="M1576.2,1763.9c0.4,92.6-86.7,181.8-177.6,182c-103.2,0.2-188.8-82.7-189.1-183
				c-0.2-99.1,83.7-183.7,182.2-183.7C1491.5,1579.2,1575.8,1663.5,1576.2,1763.9z"/>
</symbol>
<!--<symbol id="discord" xmlns="http://www.w3.org/2000/svg" viewBox="0 -150 1024 1024" fill-rule="evenodd" clip-rule="evenodd" stroke-linejoin="round">
  <path class="st0" d="M104.4 103.9c-5.7 0-10.2 5-10.2 11.1s4.6 11.1 10.2 11.1c5.7 0 10.2-5 10.2-11.1.1-6.1-4.5-11.1-10.2-11.1zM140.9 103.9c-5.7 0-10.2 5-10.2 11.1s4.6 11.1 10.2 11.1c5.7 0 10.2-5 10.2-11.1s-4.5-11.1-10.2-11.1z"/><path class="st0" d="M189.5 20h-134C44.2 20 35 29.2 35 40.6v135.2c0 11.4 9.2 20.6 20.5 20.6h113.4l-5.3-18.5 12.8 11.9 12.1 11.2 21.5 19V40.6c0-11.4-9.2-20.6-20.5-20.6zm-38.6 130.6s-3.6-4.3-6.6-8.1c13.1-3.7 18.1-11.9 18.1-11.9-4.1 2.7-8 4.6-11.5 5.9-5 2.1-9.8 3.5-14.5 4.3-9.6 1.8-18.4 1.3-25.9-.1-5.7-1.1-10.6-2.7-14.7-4.3-2.3-.9-4.8-2-7.3-3.4-.3-.2-.6-.3-.9-.5-.2-.1-.3-.2-.4-.3-1.8-1-2.8-1.7-2.8-1.7s4.8 8 17.5 11.8c-3 3.8-6.7 8.3-6.7 8.3-22.1-.7-30.5-15.2-30.5-15.2 0-32.2 14.4-58.3 14.4-58.3 14.4-10.8 28.1-10.5 28.1-10.5l1 1.2c-18 5.2-26.3 13.1-26.3 13.1s2.2-1.2 5.9-2.9c10.7-4.7 19.2-6 22.7-6.3.6-.1 1.1-.2 1.7-.2 6.1-.8 13-1 20.2-.2 9.5 1.1 19.7 3.9 30.1 9.6 0 0-7.9-7.5-24.9-12.7l1.4-1.6s13.7-.3 28.1 10.5c0 0 14.4 26.1 14.4 58.3 0 0-8.5 14.5-30.6 15.2z"/>
</symbol>-->
</svg>
